<svg xmlns="http://www.w3.org/2000/svg" enable-background="new 0 0 2800 2000" viewBox="0 0 2800 2000"><rect width="2000" height="2000" x="400" fill="#fff" fill-rule="evenodd" clip-rule="evenodd" display="none"/><path fill="#d5f0ff" d="M707.58,1359.79c19.22,29.67,207.5,255.11,359.27,257.85c136.87,2.47,181.26-195.94,325.02-181.25  c107.05,10.94,120.67,124.87,244.7,164.42c121.91,38.87,283.1-8.02,364.25-95.77c422.15-456.43,199.57-1136.24-156.86-1327.9  c-160.95-86.55-258.86,152.78-596.89,109.99c-203.27-25.73-165.41-147.52-340.55-66.72C703.32,314.16,374.55,845.69,707.58,1359.79z  " display="none" opacity=".5"/><path fill="#d5f0ff" d="M555.33,805.41c-44.36,107.12-202.97,88.6-306.19,214.42c-107.22,130.69-96.98,340.21,48.69,458.17     c147.82,119.69,376.05,97.31,487.34,86.39c182.88-17.94,247.82-71.15,390.81-110.43c500.55-137.52,806.31,211.92,1123.24,66.23     c172.45-79.28,280.71-274.29,237.48-404.43c-73.99-222.75-605.59-227.65-590.38-343.22c12.79-97.12,389.78-106,444.65-252.66     c49.19-131.48-194.01-284.25-361.18-347.21c-77.05-29.02-302.76-117.54-481.15-33.67c-141.14,66.36-130.22,175.23-255.7,210.13     c-151.28,42.07-220.15-101.44-438.98-99.15c-161.24,1.68-361.16,82.08-401.95,197.96C404.04,584.16,608.83,676.22,555.33,805.41z     " opacity=".42"/><path fill="#d5f0ff" d="M642.96,900.97c-38.47,106.06-182.73,84.95-274.32,208.67c-95.13,128.51-82.34,337.57,51.84,457.6     c136.16,121.8,342.92,103.29,443.74,94.26c165.68-14.83,223.73-66.8,352.85-103.58c451.99-128.75,735.33,224.74,1020.54,84.78     c155.19-76.16,250.19-268.78,208.78-399.24c-70.87-223.32-553.43-237.07-541.55-352.04c9.98-96.61,351.99-99.17,399.34-244.47     c42.45-130.27-180.83-286.63-333.59-352.19c-70.41-30.22-276.74-122.24-437.25-41.6c-126.99,63.8-115.26,172.53-228.56,205.23     c-136.6,39.42-201.5-104.81-400.06-106.18C758.4,351.19,578.3,428,543.21,542.85C501.96,677.87,689.36,773.06,642.96,900.97z" opacity=".6"/><path fill="#62cbec" d="M1276.15,1769.11c65.93-52.2,50.25-311.03-62.27-317.67c-7.33-0.43-48.31-2.85-89.75,28.49      c-44.65,33.77-61.93,85.63-63.91,91.58C1018.03,1698.12,1209.72,1821.7,1276.15,1769.11z"/><path fill="#bbe6f9" d="M1269.96,1781.94c65.93-52.2,50.25-311.03-62.27-317.67c-7.33-0.43-48.31-2.85-89.74,28.49      c-44.65,33.77-61.93,85.63-63.92,91.58C1011.84,1710.95,1203.53,1834.53,1269.96,1781.94z"/><path fill="#fff" d="M1324.48,1832.18c0.03-0.04,0.07-0.07,0.1-0.11c1.46-1.64,1.75-3.71,0.63-4.63        c-51.75-42.86-93.74-95.88-124.81-157.6c-24.85-49.34-42.68-104.3-53-163.34c-0.28-1.59-1.98-2.08-3.8-1.09        c-1.82,0.99-3.07,3.09-2.79,4.69c10.39,59.47,28.35,114.82,53.38,164.52c31.3,62.16,73.59,115.57,125.71,158.74        C1321,1834.26,1323.02,1833.73,1324.48,1832.18z"/><path fill="#fff" d="M1166.98,1600.01c0.57-0.6,1.01-1.33,1.25-2.08c0.57-1.87-0.38-3.25-2.13-3.08        c-16.13,1.56-30.87-0.21-43.82-5.24c-12.55-4.88-22.87-12.63-30.7-23.04c-0.88-1.17-2.9-0.92-4.52,0.56        c-1.62,1.47-2.22,3.61-1.35,4.78c8.22,10.94,19.07,19.08,32.26,24.21c13.61,5.29,29.1,7.14,46.05,5.51        C1165.06,1601.52,1166.15,1600.89,1166.98,1600.01z"/><path fill="#fff" d="M1211.4,1705.57c0.81-0.86,1.35-1.94,1.41-2.96c0.1-1.76-1.31-2.67-3.15-2.02        c-16.94,5.98-33.31,8.73-48.66,8.16c-14.87-0.55-28.14-4.19-39.45-10.82c-1.27-0.74-3.37,0.05-4.71,1.78        c-1.34,1.73-1.39,3.73-0.13,4.47c11.88,6.97,25.83,10.8,41.46,11.37c16.13,0.59,33.33-2.29,51.13-8.58        C1210.08,1706.71,1210.81,1706.2,1211.4,1705.57z"/><path fill="#fff" d="M1198.42,1632.02c11.38-12.1,21.42-25.19,29.93-39.06c10.49-17.07,18.22-34.6,22.99-52.08        c0.51-1.86-0.52-3.18-2.28-2.95c-1.77,0.24-3.62,1.94-4.12,3.8c-4.53,16.64-11.89,33.32-21.87,49.56        c-10.3,16.77-22.94,32.34-37.56,46.3c-1.58,1.52-2.11,3.64-1.18,4.75c0.93,1.11,2.98,0.78,4.56-0.73        C1192.16,1638.49,1195.34,1635.29,1198.42,1632.02z"/><path fill="#fff" d="M1248.61,1753.42c0.15-0.16,0.29-0.32,0.42-0.5c12.72-16.84,22.75-34.59,29.83-52.77        c6.86-17.61,10.64-34.87,11.24-51.3c0.06-1.75-1.38-2.62-3.22-1.94c-1.84,0.68-3.38,2.65-3.45,4.4        c-0.57,15.63-4.17,32.06-10.69,48.81c-6.73,17.29-16.28,34.18-28.38,50.21c-1.31,1.74-1.33,3.72-0.04,4.44        C1245.48,1755.42,1247.3,1754.81,1248.61,1753.42z"/><g><path fill="#8bdcef" d="M1336.28,1771.48c68.43,15.3,227.85-130.76,173.07-207.13c-3.57-4.97-23.52-32.79-65.58-43.17      c-45.32-11.19-87.98,4.84-92.88,6.69C1246.74,1567.02,1267.34,1756.07,1336.28,1771.48z"/><path fill="#d2edf7" d="M1324.72,1774.21c68.43,15.3,227.85-130.76,173.07-207.13c-3.57-4.97-23.52-32.79-65.57-43.17      c-45.32-11.19-87.98,4.84-92.88,6.69C1235.18,1569.75,1255.78,1758.8,1324.72,1774.21z"/><path fill="#fff" d="M1320.81,1835.9c0.04,0,0.08,0.01,0.12,0.01c1.83,0.09,3.32-0.82,3.33-2.02        c0.59-56.02,12.89-111.06,36.55-163.59c18.92-42,45.15-82.41,77.97-120.09c0.89-1.02,0.31-2.37-1.29-3.03        c-1.6-0.66-3.61-0.36-4.5,0.65c-33.06,37.96-59.49,78.65-78.54,120.96c-23.83,52.91-36.22,108.35-36.81,164.78        C1317.63,1834.74,1319.04,1835.77,1320.81,1835.9z"/><path fill="#fff" d="M1388.5,1611.99c0.69,0.05,1.39-0.04,2-0.29c1.51-0.61,1.9-1.96,0.88-3        c-9.48-9.63-16.08-20.11-19.61-31.14c-3.43-10.69-3.83-21.45-1.2-31.98c0.3-1.18-0.93-2.36-2.73-2.63        c-1.8-0.28-3.51,0.46-3.8,1.64c-2.77,11.07-2.35,22.37,1.26,33.61c3.72,11.59,10.65,22.6,20.61,32.72        C1386.52,1611.54,1387.49,1611.91,1388.5,1611.99z"/><path fill="#fff" d="M1343.44,1696.18c0.98,0.07,1.97-0.14,2.66-0.64c1.19-0.86,1.04-2.25-0.35-3.1        c-12.77-7.83-23.15-17-30.84-27.23c-7.45-9.92-12.06-20.43-13.7-31.23c-0.18-1.21-1.8-2.16-3.63-2.12        c-1.82,0.04-3.14,1.05-2.96,2.26c1.72,11.36,6.57,22.4,14.4,32.82c8.08,10.76,18.98,20.39,32.41,28.62        C1342.01,1695.92,1342.72,1696.13,1343.44,1696.18z"/><path fill="#fff" d="M1384.27,1649.15c13.81,1.02,27.56,0.65,41.02-1.12c16.57-2.17,31.98-6.36,45.81-12.46        c1.47-0.65,1.79-2,0.71-3.03c-1.08-1.02-3.15-1.32-4.63-0.67c-13.16,5.8-27.82,9.79-43.59,11.85        c-16.27,2.13-32.99,2.13-49.71-0.02c-1.82-0.23-3.47,0.54-3.7,1.73c-0.23,1.19,1.06,2.34,2.87,2.57        C1376.79,1648.5,1380.53,1648.88,1384.27,1649.15z"/><path fill="#fff" d="M1331.99,1745.41c0.18,0.01,0.36,0.02,0.54,0.01c17.58-0.6,34.35-3.43,49.84-8.39        c15.01-4.8,28.17-11.42,39.13-19.65c1.17-0.88,0.97-2.27-0.43-3.1c-1.41-0.83-3.49-0.8-4.66,0.08        c-10.43,7.84-22.95,14.13-37.23,18.7c-14.74,4.72-30.69,7.4-47.42,7.98c-1.81,0.06-3.11,1.09-2.89,2.3        C1329.05,1744.43,1330.4,1745.29,1331.99,1745.41z"/></g><g><path fill="#84b2fe" d="M634.44,644.82c-9.89-0.45-19.46,0.85-28.42,3.6c-18.43-25.57-47.95-42.78-81.89-44.31     c-18.3-0.83-35.74,3.01-51.16,10.45c-6.1-16.72-21.77-28.99-40.67-29.85c-25.08-1.13-46.32,18.28-47.45,43.36     c-0.18,3.91,0.15,7.72,0.92,11.38c-7.68,4.22-14.83,9.36-21.27,15.3c-8.23-4.48-17.35-7.65-27.14-9.18     c-45.78-7.16-88.7,24.15-95.86,69.93c-7.16,45.78,24.15,88.7,69.93,95.86c16.49,2.58,32.61,0.17,46.82-6.12     c15.8,17.29,37.36,29.53,62.3,33.43c26.54,4.15,52.33-1.86,73.4-15.14c9.59,7.1,20.99,12.05,33.59,14.02     c29.22,4.57,57.15-8.07,73.49-30.4c8.07,3.04,16.75,4.89,25.83,5.3c46.29,2.09,85.51-33.75,87.59-80.04     C716.57,686.12,680.73,646.91,634.44,644.82z"/><path fill="#fff" d="M627.21,647.93c-9.44-0.43-18.57,0.81-27.11,3.43c-17.58-24.4-45.74-40.81-78.11-42.27     c-17.46-0.79-34.09,2.87-48.8,9.97c-5.82-15.95-20.77-27.66-38.79-28.47c-23.92-1.08-44.18,17.44-45.26,41.36     c-0.17,3.73,0.14,7.36,0.87,10.85c-7.33,4.02-14.15,8.92-20.29,14.6c-7.85-4.27-16.55-7.29-25.89-8.75     c-43.67-6.83-84.61,23.04-91.44,66.7c-6.83,43.67,23.03,84.61,66.7,91.44c15.73,2.46,31.11,0.16,44.67-5.84     c15.07,16.49,35.64,28.17,59.42,31.89c25.32,3.96,49.92-1.77,70.02-14.44c9.15,6.77,20.02,11.49,32.04,13.37     c27.87,4.36,54.52-7.7,70.11-29c7.7,2.9,15.98,4.67,24.64,5.06c44.16,1.99,81.57-32.19,83.56-76.35     C705.55,687.33,671.37,649.92,627.21,647.93z"/></g><g><path fill="#84b2fe" d="M2040.78,156.86c17.03,0.63,33.25,4.2,48.22,10.18c35.21-41.25,88.25-66.59,146.65-64.42     c31.5,1.17,60.85,10.2,86.23,25.13c12.82-27.81,41.42-46.64,73.93-45.43c43.15,1.6,76.84,37.88,75.24,81.03     c-0.42,11.35-3.25,22.05-7.96,31.62c47.47,21.24,79.72,69.7,77.68,124.85c-2.69,72.52-63.66,129.14-136.18,126.45     c-21.93-0.81-42.4-6.96-60.22-17.14c-33.31,26.95-76.14,42.45-122.33,40.74c-43.39-1.61-82.7-18.15-113.2-44.48     c-23,13.61-50.05,21.01-78.75,19.94c-79.66-2.95-141.84-69.92-138.89-149.58C1894.15,216.09,1961.12,153.91,2040.78,156.86z"/><path fill="#fff" d="M2027.89,162.15c17.03,0.63,33.26,4.05,48.23,9.75c35.13-39.11,88.12-63.08,146.52-60.92     c31.5,1.17,60.86,9.8,86.27,24.03c12.76-26.39,41.33-44.22,73.84-43.01c43.15,1.6,76.9,36.12,75.38,77.1     c-0.4,10.78-3.2,20.94-7.9,30.02c47.5,20.26,79.85,66.35,77.91,118.73c-2.55,68.88-63.41,122.53-135.94,119.85     c-21.93-0.81-42.41-6.69-60.25-16.39c-33.26,25.54-76.06,40.17-122.24,38.46c-43.39-1.61-82.73-17.39-113.27-42.45     c-22.98,12.89-50.01,19.86-78.71,18.79c-79.66-2.95-141.96-66.67-139.16-142.32C1881.38,218.14,1948.23,159.2,2027.89,162.15z"/></g><ellipse cx="1364.57" cy="1859.95" fill="#dfe6ff" rx="1128.48" ry="57.8"/><g><path fill="#f8cd12" d="M497.38,934.68c38.79,119.38,215.49,119.38,254.28,0c-38.79,119.38,104.17,223.24,205.72,149.46      c-101.55,73.78-46.95,241.83,78.58,241.83c-125.52,0-180.12,168.05-78.58,241.83c-101.55-73.78-244.5,30.08-205.71,149.46      c-38.79-119.38-215.49-119.38-254.28,0c38.79-119.38-104.17-223.24-205.71-149.46c101.55-73.78,46.95-241.83-78.58-241.83      c125.52,0,180.12-168.05,78.58-241.83C393.22,1157.92,536.17,1054.06,497.38,934.68z" opacity=".51"/><path fill="#f09c23" d="M345.59,1354.09c0,4.12,0.09,8.22,0.26,12.31c6.21,154.17,128.6,277.18,278.68,277.18     c150.08,0,272.48-123.01,278.68-277.18c0.17-4.08,0.26-8.19,0.26-12.31c0-159.87-124.88-289.48-278.94-289.48     S345.59,1194.21,345.59,1354.09z"/><path fill="#f8cd12" d="M345.84,1366.39c6.21,154.17,128.6,277.18,278.68,277.18c150.08,0,272.48-123.01,278.68-277.18     c-6.2-154.17-128.6-277.17-278.68-277.17C474.44,1089.22,352.05,1212.22,345.84,1366.39z"/><path fill="#fff" d="M646.6,1586.37c-0.43-32.76-0.63-65.05-0.58-97.67c-9.56,0.45-19.44,0.47-29.41,0.05      c-0.33-0.01-0.67-0.03-1-0.04l-0.27,97.19c-0.01,3.51-2.86,6.35-6.37,6.35c-0.01,0-0.01,0-0.02,0      c-3.52-0.01-6.36-2.87-6.35-6.39l0.27-97.97c-41.72-3.51-84.24-15.24-91.29-39.16c-2.55-8.66-0.29-19.16,6.37-29.55      c5.8-9.05,14.25-17.02,23.2-21.86c16.34-8.85,41.79-11.33,59.03,4.12c13.96,12.51,15.54,29.98,15.57,36.95l-0.1,37.57      c0.5,0.02,1,0.05,1.51,0.07c10,0.42,19.68,0.4,28.91-0.04c0.04-12.84,0.12-25.74,0.24-38.75c0.05-5.64,0.18-20.61,10.51-32.06      c15.29-16.94,46.53-19.69,65.54-5.76c14.53,10.64,25.42,34.02,18.47,51.87c-5.43,13.94-21.36,24.34-47.36,30.89      c-10.41,2.62-22.16,4.53-34.69,5.66c-0.05,32.86,0.14,65.38,0.58,98.37c0.05,3.52-2.77,6.41-6.29,6.45c-0.03,0-0.06,0-0.09,0      C649.49,1592.66,646.65,1589.86,646.6,1586.37z M547.21,1408.53c-14.88,8.06-26.48,26.19-23.41,36.6      c4.2,14.26,36.54,26.22,79.1,29.97l0.1-36.7c-0.02-4.08-0.88-18.12-11.33-27.47c-6.38-5.71-14.42-8-22.45-8      C561.32,1402.93,553.43,1405.16,547.21,1408.53z M666.26,1413.71c-7.09,7.86-7.19,18.91-7.23,23.63      c-0.11,12.68-0.19,25.24-0.23,37.75c37.14-3.47,64.52-14,70.14-28.43c4.22-10.84-2.51-28.46-14.13-36.97      c-5.9-4.32-13.74-6.4-21.62-6.4C682.84,1403.29,672.42,1406.88,666.26,1413.71z"/><ellipse cx="625.22" cy="1830.4" fill="#5493ef" rx="74.46" ry="38.29"/><path fill="#84b2fe" d="M459.19,1585.75l37.72,210.78c3.52,19.71,20.67,34.07,40.7,34.07h173.82c20.02,0,37.17-14.35,40.7-34.07     l37.72-210.78L459.19,1585.75z"/><line x1="784.64" x2="545.55" y1="1646" y2="1646" fill="#5493ef"/><path fill="#5493ef" d="M545.55,1658.16h239.09c6.71,0,12.15-5.44,12.15-12.15c0-6.71-5.44-12.15-12.15-12.15H545.55      c-6.71,0-12.15,5.44-12.15,12.15C533.4,1652.71,538.84,1658.16,545.55,1658.16z"/><line x1="716.62" x2="477.54" y1="1708.17" y2="1708.17" fill="#5493ef"/><path fill="#5493ef" d="M477.54,1720.33h239.09c6.71,0,12.15-5.44,12.15-12.15c0-6.71-5.44-12.15-12.15-12.15l-239.09,0      c-6.71,0-12.15,5.44-12.15,12.15C465.38,1714.89,470.82,1720.33,477.54,1720.33z"/><g><line x1="762.18" x2="550.76" y1="1778.05" y2="1778.05" fill="#5493ef"/><path fill="#5493ef" d="M550.76,1790.2l211.42,0c6.71,0,12.15-5.44,12.15-12.15c0-6.71-5.44-12.15-12.15-12.15l-211.42,0      c-6.71,0-12.15,5.44-12.15,12.15C538.61,1784.76,544.05,1790.2,550.76,1790.2z"/></g><g><path fill="#fff" d="M418.75,1320.38c3.94,0,7.39-2.9,7.97-6.92c3.72-25.92,16.43-75.53,59.74-116.54       c57.48-54.43,128.92-54.91,149.45-53.77c4.45,0.24,8.25-3.15,8.5-7.6c0.25-4.44-3.15-8.25-7.6-8.5       c-19.31-1.08-41.14,0.86-61.47,5.45c-38.63,8.74-72.27,26.47-99.97,52.7c-46.86,44.37-60.6,97.96-64.62,125.96       c-0.63,4.41,2.43,8.49,6.83,9.12C417.99,1320.35,418.37,1320.38,418.75,1320.38z"/><path fill="#fff" d="M418.75,1320.78L418.75,1320.78c-0.41,0-0.81-0.03-1.21-0.09c-2.24-0.32-4.22-1.49-5.57-3.3       c-1.36-1.81-1.92-4.04-1.6-6.28c4.03-28.05,17.79-81.74,64.74-126.19c27.76-26.28,61.45-44.05,100.16-52.8       c20.36-4.61,42.23-6.55,61.58-5.46c2.26,0.13,4.33,1.12,5.84,2.81c1.51,1.69,2.27,3.86,2.14,6.11       c-0.26,4.65-4.27,8.23-8.92,7.98c-20.49-1.14-91.79-0.66-149.15,53.66c-43.23,40.93-55.91,90.44-59.62,116.31       C426.53,1317.66,422.93,1320.78,418.75,1320.78C418.75,1320.78,418.75,1320.78,418.75,1320.78z M635.94,1142.76       c4.19,0.23,7.84-3.01,8.07-7.22c0.11-2.04-0.57-4.01-1.94-5.53c-1.36-1.52-3.24-2.43-5.28-2.54       c-19.28-1.07-41.07,0.86-61.36,5.45c-38.56,8.72-72.13,26.42-99.78,52.6c-46.77,44.29-60.48,97.78-64.49,125.72       c-0.29,2.02,0.22,4.04,1.45,5.68c1.23,1.64,3.02,2.7,5.04,2.99c0.36,0.05,0.73,0.08,1.1,0.08l0,0c0,0,0,0,0,0       c3.78,0,7.03-2.82,7.57-6.57c3.73-25.97,16.46-75.68,59.86-116.78c50.68-47.99,112.19-54.13,140.24-54.13       C630.26,1142.5,633.47,1142.62,635.94,1142.76z"/></g></g><g><path fill="#f09c23" d="M1913.7,1120.02c3.27,58,3.64,128.56-3.69,208.09c-7.23,78.4-20.16,146.18-33.66,201.24      c44.92,0,89.84,0,134.76,0c10.45-136.45,20.9-272.89,31.35-409.34H1913.7z"/><path fill="#f09c23" d="M2077.56,1120.02c-3.27,58-3.64,128.56,3.69,208.09c7.23,78.4,20.16,146.18,33.66,201.24      c-44.92,0-89.84,0-134.76,0c-10.45-136.45-20.9-272.89-31.35-409.34H2077.56z"/><rect width="312.48" height="82.78" x="1839.39" y="1497.72" fill="#f09c23"/><rect width="262.34" height="82.78" x="1889.53" y="1497.72" fill="#f8cd12"/><path fill="#f09c23" d="M2367.68,1604.54v254.68h-744.1v-255.5c0-30.77,24.95-55.73,55.74-55.73h631.8     C2342.35,1547.99,2367.68,1573.31,2367.68,1604.54z"/><path fill="#f8cd12" d="M2367.68,1604.54v254.68h-697.29v-255.5c0-30.77,24.95-55.73,55.74-55.73h584.99     C2342.35,1547.99,2367.68,1573.31,2367.68,1604.54z"/><path fill="#f8cd12" d="M2247.19,1082.91c-28.69,0-57.92-2.7-87.32-8.13c-12.03-2.22-19.86-13.17-17.49-24.45      c2.37-11.28,14.04-18.63,26.07-16.41c149.37,27.57,284.59-22.58,352.91-130.91c31.12-49.34,52.12-116.41,56.18-179.42      c4.01-62.18-9.79-110.3-36.89-128.72c-21.45-14.58-54.94-13.78-94.29,2.26c-44.81,18.26-91.99,54.55-132.86,102.19      c-7.69,8.96-21.66,10.38-31.22,3.17c-9.55-7.21-11.07-20.32-3.38-29.28c45.29-52.8,98.48-93.38,149.76-114.28      c54.33-22.14,103.35-21.35,138.04,2.21c40.64,27.62,60.24,86.2,55.16,164.96c-4.46,69.29-27.75,143.35-62.28,198.11      c-38.4,60.88-96.46,107.08-167.91,133.6C2346.76,1074.49,2297.84,1082.91,2247.19,1082.91z"/><path fill="#f09c23" d="M1744.06,1082.91c28.69,0,57.92-2.7,87.32-8.13c12.03-2.22,19.86-13.17,17.49-24.45      c-2.37-11.28-14.04-18.63-26.07-16.41c-149.37,27.57-284.59-22.58-352.91-130.91c-31.12-49.34-52.12-116.41-56.18-179.42      c-4.01-62.18,9.79-110.3,36.89-128.72c21.45-14.58,54.94-13.78,94.29,2.26c44.81,18.26,91.99,54.55,132.86,102.19      c7.69,8.96,21.66,10.38,31.22,3.17c9.55-7.21,11.07-20.32,3.38-29.28c-45.29-52.8-98.48-93.38-149.76-114.28      c-54.33-22.14-103.35-21.35-138.04,2.21c-40.64,27.62-60.24,86.2-55.16,164.96c4.46,69.29,27.75,143.35,62.28,198.11      c38.4,60.88,96.46,107.08,167.91,133.6C1644.49,1074.49,1693.41,1082.91,1744.06,1082.91z"/><path fill="#f09c23" d="M2363.11,612.45c0,221.2-65.94,415.88-165.84,528.97c-57.88,65.55-127.18,103.68-201.65,103.68     c-202.96,0-367.49-283.25-367.49-632.65c0-23.51,0.75-46.71,2.21-69.56h730.57C2362.36,565.74,2363.11,588.94,2363.11,612.45z"/><path fill="#f8cd12" d="M2363.11,612.45c0,221.2-65.94,415.88-165.84,528.97c-49.96,43.77-106.51,68.44-166.4,68.44     c-202.96,0-367.49-283.25-367.49-632.65c0-11.51,0.18-22.96,0.53-34.31h697C2362.36,565.74,2363.11,588.94,2363.11,612.45z"/><path fill="#dfe6ff" d="M2132.64,812.9c0,30.19-9.76,58.09-26.31,80.74c-24.91,34.11-65.22,56.28-110.71,56.28      c-75.66,0-137.02-61.34-137.02-137.02c0-45.48,22.17-85.79,56.28-110.7c22.65-16.55,50.55-26.31,80.74-26.31      C2071.3,675.89,2132.64,737.23,2132.64,812.9z"/><path fill="#fff" d="M2132.64,812.9c0,30.19-9.76,58.09-26.31,80.74c-22.65,16.54-50.55,26.31-80.74,26.31      c-75.66,0-137.02-61.34-137.02-137.02c0-30.18,9.77-58.08,26.31-80.72c22.65-16.55,50.55-26.31,80.74-26.31      C2071.3,675.89,2132.64,737.23,2132.64,812.9z"/><g><path fill="#f8cd12" d="M1993.32,886.11V752.25l14.64,14.64h-43.92V739.7h63.16v146.41H1993.32z"/></g></g><g><path fill="#f9b691" d="M856.42,789.94c3.93-3.72,0.53-8.22,3.3-20.83c1.21-5.49,2.96-9.86,4.83-14.5     c3.9-9.7,5.63-10.52,6.47-15.68c0.36-2.2,1.18-9.03-2.21-16.18c-3.52-7.41-10.96-13.91-20-15.25     c-13.21-1.95-27.12,7.52-29.89,18.23c-3.64,14.08,14.51,19.92,16.48,45.1c0.71,9.12-1.15,15.6,3.52,19.6     C843.4,794.29,852.06,794.08,856.42,789.94z"/><path fill="#00aeef" d="M827.64,768.64c-18.02,52.27-36.91,64.82-50.75,66.72c-35.39,4.86-59.65-56.96-95.47-49.68     c-19.54,3.97-35.65,27.1-34.75,46.17c1.83,38.69,74.71,82.8,135.45,64.33c46.37-14.1,79.9-63.95,79.88-122.58     c-0.97-1.23-7.66-9.48-18.97-9.83C835.13,763.52,829.48,767.29,827.64,768.64z"/><path fill="#153663" d="M854.96,1269.43c25.47,11.21,46.42-0.7,53.89,10.79c3.41,5.25,2.26,12.7,0.12,17.27     c-13.13,28.11-101.21,28.57-113.38,1.23c-7.44-16.7,12.03-47.04,29.12-48.05C835.42,1250.04,836.76,1261.42,854.96,1269.43z"/><path fill="#153663" d="M741.43,1335.26c19.94,19.41,43.73,15.58,46.71,28.96c1.36,6.11-2.33,12.69-5.93,16.23     c-22.13,21.75-104.81-8.64-106.65-38.5c-1.12-18.25,27.72-39.86,44.09-34.83C729.9,1310.26,727.18,1321.39,741.43,1335.26z"/><path fill="#0643a3" d="M537.28,1055.45c1.09,3.43,8.62,26.05,33.26,38.4c49.42,24.77,104.46-23.42,151.63-13.32     c33.41,7.15,70.44,45.17,81.88,185.39c1.23,0.62,11.54,5.54,23.52,1.06c11.13-4.16,15.56-15.43,17.49-20.24     c10.79-26.81,38.03-189.7-60.46-228.88c-19.63-7.81-51.5-13.58-80.86-14.93c-28.36-1.3-30.28,2.64-55.67,1.12     c-56.69-3.4-73.18-26.03-92.21-14.36C534.83,1002.59,530.49,1033.97,537.28,1055.45z"/><path fill="#0a54bf" d="M537.32,1012.2c-0.75,2.64-12.03,44.57,9.68,70.76c33.96,40.96,108.89-4.59,149.29,26.91     c23.17,18.06,40.31,65.61-0.04,202.67c0.88,1.06,8.31,9.73,21.09,10.48c11.86,0.69,20.47-7.83,24.18-11.44     c20.7-20.16,111.46-158.14,37.21-233.79c-14.8-15.08-41.61-33.24-67.93-46.34c-25.41-12.65-28.77-9.82-51.37-21.48     c-50.48-26.02-56.41-53.39-78.53-50.41C558.81,962.54,542.56,993.7,537.32,1012.2z"/><path fill="#62cbec" d="M736.37,818.53c12.06,21.83,8.34,43.2,6.35,54.6c-3.77,21.67-13.83,36.78-26.89,56.42     c-3.11,4.67-5.72,8.27-8.03,11.28c-9.64,12.55-16.16,21.29-17.85,23.49c-6.3,8.15-13.68,22.9-17.29,51.85     c-7.33,1.68-18.05,3.35-30.91,2.47c-16.43-1.13-28.18-5.98-37.75-9.76c-23.21-9.16-39.53-21.91-49.27-30.83     c3.64-57.71,19.6-99.8,31.5-124.84c20.83-43.84,38.92-55.88,49.08-61.17c6.65-3.46,30.36-15.82,58.73-7.35     C698.13,785.89,722.61,793.62,736.37,818.53z"/><path fill="#f9b38c" d="M715.63,761.86c2.02,9.04,6.73,23.3-0.77,35.94c-1.17,1.98-7.35,12.41-19.18,13.94     c-8.03,1.04-16.52-2.31-21.55-8.09c-7.52-8.67-4.78-19.95-1.63-47.44c1.27-11.07,2.84-26.81,3.94-46.08     C681.91,713.32,708.41,729.55,715.63,761.86z"/><path fill="#ffcdad" d="M745.37,706.63c6.13,6.31,7.67,13.69,9.34,21.65c1.43,6.82,9.39,44.82-13.19,59.33     c-15.64,10.06-38.48,4.06-51.83-7.62c-19.94-17.45-25.62-53.63-5.75-72.61C700.79,691.29,731.28,692.1,745.37,706.63z"/><path fill="#060352" d="M746.55,723.53c7.45-1.18,22.89-3.62,31.75-15.65c14.81-20.1,3.61-56.58-10.4-60.07     c-11.28-2.81-16.64,17.7-36.89,19.66c-19.13,1.85-25.41-15.39-43.32-13.62c-17.91,1.77-32.95,21.11-37.48,38.84     c-7.88,30.82,14.64,62.16,21.99,60.56c6.26-1.36-1.33-25.93,11.77-35.01C697.44,708.91,714.56,728.59,746.55,723.53z"/><path fill="#fff" d="M710.79,774.46c3.81,1.27,10.14,2.68,17.96,1.17c5.63-1.09,10.19-3.34,13.36-5.27     c-0.68,1.59-4.27,9.65-11.59,12.51C723.38,785.66,715.56,782.35,710.79,774.46z"/><path fill="#2c7efe" d="M926.76,680.49l-136.62,35.71c-1.2,1.44-4.43,5.73-3.74,11.26c0.67,5.37,4.65,8.71,6.16,9.86       c47.05,1.31,94.1,2.62,141.15,3.93L926.76,680.49z"/><path fill="#0643a3" d="M925.39,680.51c-10.18,1.16-16.87,15.77-14.94,32.61c1.93,16.85,11.74,29.56,21.92,28.4       c10.18-1.16,16.87-15.77,14.94-32.62C945.38,692.06,935.57,679.34,925.39,680.51z"/><path fill="#2c7efe" d="M926.09,686.61c-8.58,0.98-14.21,13.28-12.59,27.48c1.62,14.19,9.89,24.9,18.47,23.92        c8.58-0.98,14.21-13.28,12.59-27.48C942.93,696.34,934.66,685.63,926.09,686.61z"/><path fill="#62cbec" d="M925.79,684.02c-8.58,0.98-14.21,13.28-12.59,27.48c1.62,14.19,9.89,24.9,18.47,23.92        c8.58-0.98,14.21-13.28,12.59-27.48C942.63,693.75,934.36,683.04,925.79,684.02z"/><path fill="#2c7efe" d="M875.01,693.44l-118.68,31.02c-5.37,1.4-9.13,6.4-8.71,11.93c0.02,0.2,0.04,0.41,0.06,0.61      c0.02,0.19,0.05,0.38,0.08,0.57c0.93,5.38,5.68,9.28,11.14,9.43c40.88,1.14,81.75,2.27,122.63,3.41      c7.11,0.2,12.74-5.94,11.93-13.01l-3.89-33.99C888.76,696.35,881.89,691.64,875.01,693.44z"/><path fill="#0643a3" d="M886.67,690.05c-10.18,1.16-16.87,15.77-14.94,32.62c1.93,16.85,11.74,29.56,21.92,28.4      c10.18-1.16,16.87-15.77,14.94-32.62C906.66,701.6,896.85,688.89,886.67,690.05z"/><g><path fill="#2c7efe" d="M887.37,696.15c-8.58,0.98-14.21,13.28-12.59,27.48c1.62,14.19,9.89,24.9,18.47,23.92       c8.58-0.98,14.21-13.28,12.59-27.48C904.21,705.88,895.94,695.17,887.37,696.15z"/><path fill="#62cbec" d="M887.07,693.57c-8.58,0.98-14.21,13.28-12.59,27.48c1.62,14.19,9.89,24.9,18.47,23.92       c8.58-0.98,14.21-13.28,12.59-27.48C903.91,703.3,895.65,692.59,887.07,693.57z"/></g><path fill="#ffcdad" d="M830.23,786.95c3.39-4.22-0.59-8.22,0.43-21.08c0.45-5.61,1.59-10.17,2.81-15.02     c2.54-10.14,4.15-11.19,4.28-16.41c0.06-2.23-0.06-9.11-4.4-15.73c-4.49-6.86-12.76-12.29-21.9-12.38     c-13.35-0.13-25.84,11.15-27.12,22.13c-1.69,14.45,17.09,17.75,22.47,42.43c1.95,8.94,0.99,15.61,6.16,18.94     C817.92,793.03,826.47,791.63,830.23,786.95z"/><path fill="#7dd9ef" d="M642.89,793.57c36.42-6.54,57.95,53.54,94.14,51.79c17.24-0.84,40.19-15.83,65.57-77.3     c2.42-1.1,8.2-3.32,15.54-2.25c10.13,1.47,16.05,8.16,17.53,9.94c1.34,49.25-18.55,95.16-55.25,116.08     c-68.62,39.12-170.47-23.73-170.83-62.32C609.44,814.02,625.58,796.68,642.89,793.57z"/></g><g><path fill="#84b2fe" d="M1251.53,213.29c2.73-6.32,4.13-13.26,3.89-20.52c-0.91-27.58-25.18-49.16-54.21-48.21     c-21.88,0.72-40.21,14.03-47.54,32.34c-17.73-8.36-37.84-12.77-59.03-12.08c-30.65,1.01-58.34,12.53-79.36,30.78     c-8.63-33.2-39.92-56.6-75.38-54.12c-40.03,2.8-70.22,37.52-67.42,77.56c0.51,7.24,2.06,14.16,4.5,20.62     c-7.25-1.82-14.91-2.55-22.77-2c-40.03,2.8-70.22,37.52-67.42,77.56c2.8,40.03,37.52,70.22,77.56,67.42     c14.6-1.02,27.89-6.29,38.75-14.52c18.09,15.98,42.59,25.41,69.28,24.54c19.31-0.63,37.13-6.58,51.94-16.31     c21.67,15.39,48.82,24.13,78.02,23.17c31.08-1.02,59.12-12.85,80.24-31.55c12.43,5.67,26.45,8.66,41.21,8.17     c48.8-1.6,87.13-40.47,85.61-86.82C1308.24,254.07,1284.37,224.66,1251.53,213.29z"/><path fill="#fff" d="M1251.53,224.63c2.73-6.32,4.13-13.26,3.89-20.52c-0.91-27.58-25.18-49.16-54.21-48.21     c-21.88,0.72-40.21,14.02-47.54,32.34c-17.73-8.36-37.84-12.77-59.03-12.08c-30.65,1.01-58.34,12.53-79.36,30.78     c-8.63-33.2-39.92-56.6-75.38-54.12c-40.03,2.8-70.22,37.52-67.42,77.56c0.51,7.24,2.06,14.16,4.5,20.62     c-7.25-1.82-14.91-2.55-22.77-2c-40.03,2.8-70.22,37.52-67.42,77.56c2.8,40.03,37.52,70.22,77.56,67.42     c14.6-1.02,27.89-6.29,38.75-14.52c18.09,15.98,42.59,25.41,69.28,24.54c19.31-0.63,37.13-6.58,51.94-16.31     c21.67,15.39,48.82,24.13,78.02,23.17c31.08-1.02,59.12-12.85,80.24-31.55c12.43,5.67,26.45,8.66,41.21,8.17     c48.8-1.6,87.13-40.47,85.61-86.82C1308.24,265.41,1284.37,236,1251.53,224.63z"/></g></svg>