<svg xmlns="http://www.w3.org/2000/svg" enable-background="new 0 0 2500 2500" viewBox="0 0 2500 2500"><path fill="#ffd400" d="M1046.91,396.6c1.61-0.12,2.99,1.1,3.11,2.7c0.06,0.91-0.3,1.76-0.91,2.34
							c-0.47,0.44-1.09,0.71-1.79,0.77c-1.2,0.09-21.48,1.48-34.62,2.2l32.02,33.98c5.63-0.04,33.39-1.89,44.04-2.62
							c1.63-0.1,3.01,1.12,3.11,2.7c0.05,0.91-0.28,1.74-0.89,2.32c-0.49,0.46-1.11,0.73-1.81,0.79c-1.34,0.1-26.84,1.86-39.16,2.42
							l32.9,34.91l67.5-11.28L1046.6,357.68l-67.48,11.3l28.34,30.06C1017.43,398.58,1038.05,397.2,1046.91,396.6z"/><path fill="#ffd400" d="M1059.56,345.46l103.81,110.13l15.25-66.72l-20.51-21.76c-1.09,8.97-2.1,16.75-2.18,17.47
							c-0.1,0.7-0.43,1.28-0.92,1.74c-0.59,0.56-1.44,0.88-2.35,0.77c-1.6-0.21-2.73-1.66-2.51-3.26c0.66-4.97,1.74-13.74,2.79-22.2
							l-21.28-22.58c-1.38,12.76-4.39,36-4.55,37.27c-0.08,0.68-0.43,1.28-0.89,1.72c-0.61,0.58-1.47,0.9-2.35,0.77
							c-1.6-0.21-2.73-1.66-2.51-3.26c1.23-9.75,4.29-33.87,5.07-42.07l-23.16-24.57c-1.52,12.62-3.5,28.01-3.63,29.06
							c-0.08,0.68-0.41,1.3-0.87,1.74c-0.61,0.58-1.46,0.86-2.36,0.75c-1.58-0.19-2.73-1.66-2.51-3.26
							c0.96-7.41,2.92-23.12,4.17-33.83l-23.22-24.63L1059.56,345.46z"/><path fill="#ff452d" d="M1045.16,798.49c5.69,206.17,183.97,373.33,398.3,373.33c214.38,0,383.51-167.16,377.88-373.33
									c-5.69-206.17-183.98-373.27-398.3-373.27C1208.72,425.22,1039.53,592.32,1045.16,798.49z"/><path fill="#fff" d="M1154.23,783.01c4.28,155,138.31,280.66,299.43,280.66c161.17,0,288.32-125.66,284.08-280.66
									c-4.28-154.99-138.31-280.61-299.43-280.61C1277.18,502.4,1149.99,628.02,1154.23,783.01z"/><path fill="#ff452d" d="M1231.84,783.02c3.14,113.76,101.51,205.99,219.77,205.99c118.29,0,211.61-92.23,208.51-205.99
									c-3.14-113.76-101.51-205.96-219.77-205.96C1322.09,577.06,1228.74,669.26,1231.84,783.02z"/><path fill="#fff" d="M1309.52,783.03c2,72.5,64.69,131.27,140.05,131.27c75.38,0,134.85-58.78,132.87-131.27
									c-2-72.5-64.69-131.25-140.05-131.25C1367.03,651.77,1307.54,710.53,1309.52,783.03z"/><path fill="#ff452d" d="M1381.06,783.03c0.95,34.49,30.78,62.45,66.63,62.45c35.86,0,64.16-27.96,63.21-62.45
									c-0.95-34.49-30.78-62.44-66.63-62.44C1408.42,720.59,1380.12,748.54,1381.06,783.03z"/><path fill="#141323" d="M1045.17,798.48c5.69,206.19,183.96,373.34,398.3,373.34c123.1,0,231.33-55.08,299.99-141.11
									c-68.4,68.2-164.76,110.48-272.54,110.48c-214.28,0-392.55-167.16-398.3-373.34c-2.38-87.81,26.95-168.51,77.88-232.23
									C1082.81,603.07,1042.38,695.96,1045.17,798.48z"/><path d="M1452.27,786.25l11.16-10.51c1.01-0.95,1.06-2.55,0.11-3.56l-417.05-442.44c-0.95-1.01-2.55-1.06-3.56-0.11
								l-11.16,10.51c-1.01,0.95-1.06,2.55-0.11,3.56l417.05,442.44C1449.66,787.16,1451.25,787.21,1452.27,786.25z"/><rect width="315.4" height="328.08" x="329.14" y="1889.88" fill="#ffd400"/><path fill="#f7bd06" d="M644.53,1889.88v328.09H329.15v-64.06c130.83-22.68,232.53-130.32,246.15-264.04H644.53z"/><rect width="315.4" height="480.02" x="734.18" y="1737.94" fill="#ff452d"/><rect width="315.4" height="480.02" x="734.18" y="1737.94" fill="#e7ebfb"/><path fill="#b7bef8" d="M1049.59,1737.94v480.02H734.18v-66.98c141.66-30.97,247.69-157.13,247.69-308.09v-104.96H1049.59z
												"/><rect width="315.4" height="653.69" x="1139.22" y="1564.27" fill="#00c09a"/><path fill="#04ad8c" d="M1454.62,1564.27v653.7h-315.41v-66.98c141.66-30.94,247.69-157.13,247.69-308.09v-278.63H1454.62z"/><path fill="#060f11" d="M644.54,2221.23h-315.4c-1.81,0-3.27-1.47-3.27-3.27v-328.08c0-1.81,1.47-3.27,3.27-3.27h315.4
												c1.81,0,3.27,1.47,3.27,3.27v328.08C647.81,2219.77,646.35,2221.23,644.54,2221.23z M332.41,2214.68h308.85v-321.53
												H332.41V2214.68z"/><path fill="#060f11" d="M1049.58,2221.23h-315.4c-1.81,0-3.27-1.47-3.27-3.27v-480.02c0-1.81,1.47-3.27,3.27-3.27h315.4
												c1.81,0,3.27,1.47,3.27,3.27v480.02C1052.85,2219.77,1051.38,2221.23,1049.58,2221.23z M737.45,2214.68h308.85v-473.48
												H737.45V2214.68z"/><path fill="#060f11" d="M1454.62,2221.23h-315.4c-1.81,0-3.27-1.47-3.27-3.27v-653.69c0-1.81,1.47-3.27,3.27-3.27h315.4
												c1.81,0,3.27,1.47,3.27,3.27v653.69C1457.89,2219.77,1456.43,2221.23,1454.62,2221.23z M1142.49,2214.68h308.85v-647.14
												h-308.85V2214.68z"/><path fill="#ffc1a4" d="M802.42,2045.99l1.19,39.59c43.96,29.4,87.52,55.33,124.44,24.72l-4.7-64.31H802.42z"/><polygon points="802.44 2045.99 803.08 2068 916.45 2045.99"/><path fill="#4a4ddc" d="M928.05,2107.75c0,0,8.84,20.92,26.21,27.17s63.78,14.65,70.48,30.45
														c6.69,15.79,4.56,52.59,4.56,52.59l-233.42-0.59l0.4-136.43c0,0,8.65-7.79,33.42,3.6
														C854.47,2095.94,886.23,2115.71,928.05,2107.75z"/><path fill="#060606" d="M1029.54,2198.55c0.25,10.73-0.25,19.41-0.25,19.41l-233.42-0.59l0.06-19.41L1029.54,2198.55z"/><path d="M900.68,2128.35c-34.65,0-58.23-12.06-74.14-22.34c-15.95-10.3-28.28-5.16-28.8-4.94
														c-1.89,0.81-4.09-0.04-4.92-1.92c-0.83-1.88,0-4.08,1.88-4.92c0.66-0.3,16.39-7.12,35.9,5.49
														c19.79,12.78,52.14,28.49,104.55,17.31c2.02-0.43,4.01,0.86,4.44,2.88c0.43,2.02-0.86,4.01-2.88,4.44
														C923.53,2127.16,911.56,2128.35,900.68,2128.35z"/><path d="M929.96,2147.7c-0.92,0-1.84-0.34-2.56-1.01c-1.51-1.42-1.58-3.78-0.16-5.29l14.63-15.56
														c1.42-1.51,3.78-1.58,5.29-0.16c1.51,1.42,1.58,3.78,0.16,5.29l-14.63,15.56
														C931.95,2147.3,930.96,2147.7,929.96,2147.7z"/><path d="M942.63,2154.34c-0.92,0-1.84-0.34-2.56-1.01c-1.51-1.42-1.58-3.78-0.16-5.29l14.63-15.56
														c1.41-1.51,3.78-1.58,5.29-0.16c1.51,1.42,1.58,3.78,0.16,5.29l-14.63,15.56
														C944.62,2153.94,943.63,2154.34,942.63,2154.34z"/><path d="M955.3,2160.98c-0.92,0-1.84-0.34-2.56-1.01c-1.51-1.42-1.58-3.78-0.16-5.29l14.63-15.56
														c1.42-1.51,3.78-1.58,5.29-0.16c1.51,1.42,1.58,3.78,0.16,5.29l-14.63,15.56
														C957.29,2160.59,956.3,2160.98,955.3,2160.98z"/><path d="M852.28,2201.86c-1.59,0-3.06-1.02-3.57-2.62c-12.6-39.94-51.02-40.42-52.65-40.42
														c-2.06,0-3.74-1.67-3.74-3.74c0-2.06,1.66-3.74,3.73-3.75c0,0,0,0,0,0c0.62,0,45.54,0.45,59.8,45.65
														c0.62,1.97-0.47,4.07-2.44,4.69C853.03,2201.8,852.66,2201.86,852.28,2201.86z"/><path fill="#ffc1a4" d="M537.86,1720.21l-1.19,39.59c-43.96,29.4-87.52,55.33-124.44,24.72l4.7-64.31H537.86z"/><polygon points="537.85 1720.21 537.2 1742.22 423.83 1720.21"/><path fill="#4a4ddc" d="M412.24,1781.97c0,0-8.84,20.92-26.21,27.17c-17.37,6.25-63.78,14.65-70.48,30.45
														c-6.69,15.79-4.56,52.59-4.56,52.59l233.42-0.59l-0.4-136.43c0,0-8.65-7.79-33.42,3.6
														C485.81,1770.16,454.05,1789.93,412.24,1781.97z"/><path fill="#060606" d="M310.74,1872.77c-0.25,10.73,0.25,19.41,0.25,19.41l233.42-0.59l-0.06-19.41L310.74,1872.77z"/><path d="M439.61,1802.57c-10.88,0-22.86-1.19-36.03-4c-2.02-0.43-3.31-2.42-2.88-4.44c0.43-2.02,2.42-3.31,4.44-2.88
														c52.4,11.18,84.76-4.53,104.55-17.31c19.51-12.6,35.25-5.79,35.9-5.49c1.89,0.85,2.73,3.06,1.88,4.95
														c-0.84,1.88-3.04,2.72-4.92,1.89c-0.54-0.23-12.86-5.35-28.8,4.94C497.84,1790.51,474.25,1802.57,439.61,1802.57z"/><path d="M410.32,1821.92c-1,0-1.99-0.4-2.73-1.18l-14.63-15.56c-1.42-1.51-1.34-3.87,0.16-5.29
														c1.51-1.41,3.87-1.34,5.29,0.16l14.63,15.56c1.42,1.51,1.34,3.87-0.16,5.29
														C412.16,1821.58,411.24,1821.92,410.32,1821.92z"/><path d="M397.65,1828.56c-1,0-1.99-0.4-2.73-1.18l-14.62-15.56c-1.42-1.51-1.34-3.87,0.16-5.29
														c1.51-1.41,3.88-1.34,5.29,0.16l14.62,15.56c1.42,1.51,1.34,3.87-0.16,5.29
														C399.49,1828.23,398.57,1828.56,397.65,1828.56z"/><path d="M384.98,1835.2c-1,0-1.99-0.4-2.73-1.18l-14.63-15.56c-1.42-1.51-1.34-3.87,0.16-5.29
														c1.51-1.41,3.87-1.34,5.29,0.16l14.63,15.56c1.42,1.51,1.34,3.87-0.16,5.29C386.82,1834.87,385.9,1835.2,384.98,1835.2
														z"/><path d="M488,1876.08c-0.37,0-0.75-0.06-1.13-0.17c-1.97-0.62-3.06-2.72-2.44-4.69c14.26-45.2,59.18-45.65,59.8-45.65
														c0,0,0,0,0,0c2.06,0.01,3.73,1.68,3.73,3.75c0,2.06-1.68,3.74-3.74,3.74c-1.63,0-40.05,0.48-52.65,40.42
														C491.07,1875.06,489.59,1876.08,488,1876.08z"/><path fill="#4a4ddc" d="M790.52,1186.98l-12.65,252.36l-7.78-1.07l-59.59-8.19l-97.24-13.35l-43.18,318.66l-182.03-19.13
												L445.12,1311c9.26-52.21,55.97-89.35,108.92-86.57l130.66,6.88l9.96-38.89L790.52,1186.98z"/><polygon points="770.09 1438.27 715.83 1430.81 753.91 1340.09"/><path fill="#4a4ddc" d="M766.88,2051.7h207.39l13.7-383.61c1.08-18.36,0.38-36.78-2.07-55.01l-52.48-389.91
												c-2.71,0-195.35-12.66-195.35-12.66l51.55,451.31L766.88,2051.7z"/><path fill="#ffc1a4" d="M1271.08,1058.74l-179.55,116.13c-40.33,26.07-94.39,10.7-114.92-32.68l-15.47-32.61l-33.76-71.2
												l20.97-8.59l89.35-36.64l7.31,23.39l11.58,37.01l161.07-87.84L1271.08,1058.74z"/><polygon fill="#f7b094" points="1045.03 1016.53 961.14 1109.57 927.39 1038.37 948.36 1029.78"/><path fill="#ff73ed" d="M888.17,886.6l63.73,2.26c33.19,1.18,62.76,21.31,76.03,51.76l30.3,69.55l-129.5,64.12L888.17,886.6
												z"/><path fill="#ff73ed" d="M740.98,884.66l149.84,1.93c44.25,0.57,78.93,38.2,75.89,82.35l-18.73,272.29l-288.56-31.2
												l26.78-276.29C688.94,905.63,712.74,884.29,740.98,884.66z"/><path fill="#ffc1a4" d="M700.74,1041.32l-44.53,49.79l-45.03,50.36c-26.71,29.9-72.31,33.25-103.11,7.58l-147.5-122.91
												l67.01-98.45l125.19,106.16l39.93-58.15v-0.03l16.91-24.6L700.74,1041.32z"/><polygon fill="#f7b094" points="700.74 1041.32 656.22 1091.11 592.7 975.72 592.7 975.69"/><path fill="#ff73ed" d="M713.37,1043.66l-33.13,30.65L584.86,966l48.7-53.04c16.52-18.05,39.89-28.3,64.38-28.27l50.82,0.06
												C764.47,939.8,753.63,1002.99,713.37,1043.66z"/><path fill="#fff" d="M680.24,1077.58c-0.88,0-1.76-0.35-2.4-1.05c-1.23-1.33-1.15-3.4,0.18-4.63l33.13-30.65
												c7.65-7.73,14.49-16.65,20.21-26.39c0.91-1.56,2.92-2.08,4.48-1.16c1.56,0.92,2.08,2.92,1.16,4.48
												c-6,10.21-13.17,19.56-21.31,27.78l-33.23,30.75C681.83,1077.29,681.04,1077.58,680.24,1077.58z"/><g><path fill="#fff" d="M882.99,1973.88c-0.04,0-0.09,0-0.13,0c-1.81-0.07-3.22-1.59-3.14-3.4l12.35-313.81
											c0.24-6.02,0.01-12.12-0.68-18.13l-31.38-274.11c-0.21-1.8,1.08-3.42,2.88-3.63c1.8-0.2,3.42,1.08,3.62,2.88l31.38,274.11
											c0.73,6.34,0.97,12.77,0.72,19.13l-12.35,313.81C886.2,1972.49,884.74,1973.88,882.99,1973.88z"/></g><g><path fill="#fff" d="M763.98,1440.7c-1.63,0-3.04-1.21-3.24-2.87l-15.78-126.48c-0.22-1.8,1.05-3.43,2.84-3.65
											c1.78-0.22,3.43,1.05,3.65,2.84l15.78,126.47c0.22,1.8-1.05,3.43-2.84,3.65C764.25,1440.69,764.11,1440.7,763.98,1440.7z"/></g><g><path fill="#fff" d="M917.01,1320.94c-10.9,0-21.95-7.04-26.9-17.65c-4.98-10.67-4.02-24.33,2.49-35.66
											c0.9-1.57,2.9-2.11,4.47-1.21c1.57,0.9,2.11,2.9,1.21,4.47c-5.47,9.51-6.32,20.86-2.23,29.62
											c4.39,9.4,14.74,15.26,24.08,13.6c1.78-0.31,3.48,0.88,3.79,2.66c0.31,1.78-0.88,3.48-2.66,3.79
											C919.85,1320.82,918.43,1320.94,917.01,1320.94z"/></g><g><path fill="#fff" d="M672.45,1267.33c-3.7,0-7.13-0.31-10.03-0.64c-1.8-0.21-3.08-1.83-2.87-3.63
											c0.21-1.8,1.86-3.08,3.63-2.87c6.81,0.79,16.84,1.41,25.35-2.35c7.9-3.49,13.3-10.91,13.13-18.03
											c-0.04-1.81,1.39-3.31,3.2-3.35c1.79-0.07,3.31,1.39,3.35,3.2c0.26,11.38-8.37,20.34-17.03,24.17
											C685.02,1266.54,678.4,1267.33,672.45,1267.33z"/></g><g><path fill="#fff" d="M480.84,1634.38c-0.17,0-0.34-0.01-0.51-0.04c-1.79-0.28-3.01-1.95-2.73-3.74l36.99-238.09
											c6.24-40.16,41.56-68.59,82.11-66.11l114.29,6.98c1.81,0.11,3.18,1.66,3.07,3.47c-0.11,1.81-1.68,3.19-3.47,3.07
											l-114.29-6.98c-37.19-2.25-69.52,23.77-75.24,60.58l-36.99,238.09C483.82,1633.23,482.43,1634.38,480.84,1634.38z"/></g><g><path fill="#fff" d="M527.47,1682.6c-0.14,0-0.29-0.01-0.43-0.03l-90.81-11.99c-1.79-0.24-3.05-1.88-2.82-3.67
											c0.24-1.79,1.88-3.06,3.68-2.82l90.81,11.99c1.79,0.24,3.05,1.88,2.82,3.67C530.49,1681.4,529.09,1682.6,527.47,1682.6z"/></g><g><path fill="#fff" d="M947.53,2008.72h-128.5c-1.81,0-3.27-1.47-3.27-3.27c0-1.81,1.47-3.27,3.27-3.27h128.5
											c1.81,0,3.27,1.47,3.27,3.27C950.8,2007.25,949.34,2008.72,947.53,2008.72z"/></g><g><path fill="#fff" d="M960.56,1061.82c-0.08,0-0.15,0-0.23-0.01c-1.8-0.12-3.17-1.69-3.04-3.49l4.05-58.93
										c0.12-1.81,1.7-3.15,3.49-3.04c1.8,0.12,3.17,1.69,3.04,3.49l-4.05,58.93C963.7,1060.5,962.26,1061.82,960.56,1061.82z"/></g><g><path fill="#fff" d="M1619.82,905.7c-65.55,84.68-182.2,106.42-272.82,55.38c-0.51-0.25-1.01-0.54-1.52-0.83
											c-8.46-4.85-16.68-10.35-24.56-16.46c-5.75-4.45-11.25-9.15-16.42-14.07c-1.92-1.81-3.8-3.65-5.64-5.53
											c-73.25-74.84-81.93-194.1-16.06-279.26c72.02-93.07,205.86-110.11,298.9-38.13
											C1674.77,678.82,1691.84,812.63,1619.82,905.7z" opacity=".3"/><path fill="#060f11" d="M1450.58,991.39c-36,0-72.24-8.91-105.18-27.46c-0.42-0.2-0.98-0.52-1.54-0.84
											c-8.59-4.92-16.98-10.54-24.94-16.71c-5.87-4.54-11.48-9.35-16.67-14.29c-1.94-1.83-3.85-3.7-5.72-5.62
											c-75.04-76.67-82.05-198.57-16.31-283.55c73-94.34,209.15-111.7,303.49-38.71c94.35,73.01,111.71,209.15,38.71,303.49v0
											C1580.36,962.03,1515.9,991.39,1450.58,991.39z M1451.55,565.61c-62.76,0-124.87,27.96-166.16,81.32
											c-63.75,82.41-56.95,200.62,15.81,274.96c1.81,1.85,3.66,3.66,5.55,5.44c5.04,4.79,10.48,9.45,16.18,13.86
											c7.72,5.99,15.86,11.44,24.19,16.21c0.45,0.26,0.9,0.52,1.36,0.74c90.03,50.71,205.51,27.26,268.76-54.46v0
											c70.79-91.48,53.95-223.51-37.54-294.3C1541.56,579.89,1496.39,565.61,1451.55,565.61z M1619.82,905.7h0.04H1619.82z"/><path fill="#060f11" d="M1349.33,961.87l-123.28,160.99c-8.29,10.67-23.66,12.65-34.39,4.36
											c-10.67-8.29-12.65-23.66-4.36-34.36l122.61-160.09c4.8,4.56,9.9,8.93,15.23,13.05c7.31,5.67,14.93,10.77,22.78,15.27
											C1348.39,961.37,1348.86,961.64,1349.33,961.87z"/><path fill="#ffc1a4" d="M1217.67,965.7l30.77-25.4c10.89-9.44,26.91-9.92,38.35-1.16l32.99,22.61
										c8.02,8.13,8.47,21.06,1.04,29.73l0,0c-7.39,8.62-20.13,10.19-29.38,3.62l-19.01-13.73l-26.16,34.15L1217.67,965.7z"/><path fill="#ffc1a4" d="M1255.86,1032.24c-4.27,4.87-3.57,12.78-2.86,16.75l-1.45,1.35c-2.21-0.98-6.07-2.03-10.52-0.04
											c-6.96,3.1-4.23,14.04-4.23,14.04s-12.1-6.57-16.48,3.92c-2.57,6.11,8.67,23.69,25.87,25.22
											c17.2,1.54,15.43-13.64,15.43-13.64s7.64,2.83,13.24,0.63c5.61-2.2,6.95-11.34,6.95-11.34s9.62,4.49,15.45-0.38
											c5.85-4.9,2.47-12.04,2.47-12.04s13.27,7.61,22.09-3.95c12.93-16.98-10.91-36.12-29.24-41.3
											c-6.48-1.81-12.29-1.91-15.54,0.49c-5.83,4.3-5.19,14.64-4.67,18.69l-1.05,0.98
											C1268.26,1030.05,1260.51,1026.94,1255.86,1032.24z"/><path fill="#060606" d="M1248.57,1096.86c-0.86,0-1.74-0.04-2.66-0.12c-12.4-1.11-21.57-9.4-26.02-16.79
											c-3.01-4.99-3.94-9.72-2.58-12.96c0.7-1.67,2.63-2.45,4.29-1.75c1.67,0.7,2.45,2.62,1.75,4.29
											c-0.33,0.79-0.04,3.4,2.15,7.05c3.45,5.74,11.02,12.75,20.99,13.64c4.38,0.39,7.59-0.4,9.52-2.36
											c2.83-2.87,2.37-7.61,2.37-7.65c-0.12-1.12,0.35-2.24,1.25-2.93c0.89-0.69,2.08-0.89,3.14-0.5
											c1.81,0.66,7.3,2.07,10.92,0.65c3.1-1.22,4.62-6.88,4.91-8.77c0.15-1.02,0.78-1.91,1.69-2.4c0.91-0.49,2-0.52,2.93-0.08
											c0.07,0.03,7.89,3.48,11.97,0.07c3.73-3.12,1.83-7.65,1.6-8.16c-0.58-1.29-0.28-2.83,0.77-3.79
											c1.05-0.96,2.6-1.14,3.82-0.43c0.43,0.24,10.92,5.99,17.86-3.09c3.04-3.99,3.77-8.14,2.25-12.7
											c-3.47-10.4-17.87-20.1-29.78-23.46c-5.78-1.62-10.53-1.63-12.71-0.03c-1.46,1.07-3.51,0.76-4.58-0.7
											c-1.07-1.46-0.76-3.51,0.7-4.58c5-3.68,12.75-2.58,18.37-1c13.37,3.78,29.91,14.77,34.22,27.69
											c2.2,6.58,1.07,13.06-3.26,18.75c-6.06,7.94-14.31,8.53-20.46,7.07c-0.1,3.14-1.25,6.65-4.6,9.45
											c-4.8,4.02-11.23,3.23-15.22,2.15c-1.11,3.48-3.44,8.29-8.08,10.11c-3.85,1.51-8.22,1.16-11.37,0.54
											c-0.41,2.56-1.45,5.75-3.97,8.33C1257.84,1095.36,1253.75,1096.86,1248.57,1096.86z"/><path fill="#060606" d="M1251.55,1053.61c-0.45,0-0.9-0.09-1.33-0.28c-2.65-1.18-5.29-1.19-7.85-0.04
											c-1.65,0.74-3.59,0-4.32-1.65c-0.74-1.65,0-3.59,1.65-4.33c3.6-1.61,6.92-1.66,9.63-1.1c-0.43-4.89-0.01-11.47,4.07-16.12
											c1.19-1.36,3.26-1.5,4.62-0.3c1.36,1.19,1.5,3.26,0.31,4.62c-3.44,3.93-2.61,11.11-2.1,14.02
											c0.2,1.09-0.18,2.21-0.99,2.97l-1.45,1.35C1253.17,1053.31,1252.36,1053.61,1251.55,1053.61z"/><path fill="#060606" d="M1261.83,1083.18c-0.5,0-1.01-0.12-1.49-0.36c-0.37-0.19-9.14-4.7-14.39-9.76
											c-1.3-1.26-1.34-3.33-0.08-4.63c1.26-1.3,3.33-1.34,4.63-0.08c4.55,4.39,12.74,8.6,12.82,8.64
											c1.61,0.82,2.25,2.8,1.43,4.4C1264.16,1082.53,1263.01,1083.18,1261.83,1083.18z"/><path fill="#060606" d="M1281.81,1072.42c-0.63,0-1.27-0.18-1.83-0.56c-0.54-0.37-13.37-9.09-18.67-14.48
											c-1.27-1.29-1.25-3.36,0.04-4.63c1.29-1.27,3.36-1.25,4.63,0.04c4.84,4.93,17.54,13.56,17.67,13.65
											c1.5,1.01,1.89,3.05,0.87,4.55C1283.89,1071.91,1282.86,1072.42,1281.81,1072.42z"/><path fill="#060606" d="M1299.73,1059.98c-0.65,0-1.3-0.19-1.87-0.59c-1.39-0.97-13.71-9.66-17.47-15.59
											c-0.97-1.53-0.51-3.55,1.01-4.52c1.52-0.97,3.55-0.52,4.52,1.01c2.59,4.09,12.2,11.29,15.68,13.72
											c1.48,1.03,1.85,3.07,0.81,4.56C1301.78,1059.49,1300.76,1059.98,1299.73,1059.98z"/></g><g><path fill="#ffc1a4" d="M434.28,933.38l-73.72,92.78c-32.72-6.07-125.29-74.05-126.63-90.13
								c-1.31-16.11,21.04-10.17,21.04-10.17s-11.98-9.09-6.21-17.45c5.54-7.99,22.38,2.48,23.96,3.49
								c-1.31-1.04-14.36-11.64-6.41-17.72c8.12-6.21,27.41,3.19,28.32,3.62c-0.5-0.4-11.27-9.66-4.3-16.37
								c7.15-6.91,21.81-1.91,21.81-1.91l72.61,34.8l-12.82-30.53c-0.81-1.98-1.21-3.99-1.21-6.01c0-5.84,3.25-11.41,8.79-14.09
								c7.21-3.52,15.9-1.01,20.13,5.8C412.17,889.7,420.38,915.8,434.28,933.38z"/></g><g><path d="M294.66,994.59c-0.55,0-1.11-0.14-1.63-0.44c-29.38-16.86-61.43-46.61-62.36-57.86c-0.5-6.11,1.95-9.54,4.09-11.33
								c3.26-2.72,7.83-3.56,11.83-3.45c-2.73-4.36-4.09-9.8-0.52-14.96c3.49-5.06,9.59-5.04,15.27-3.48
								c-0.54-1.35-0.86-2.75-0.86-4.16c0-2.01,0.67-4.91,3.83-7.32c5.47-4.17,14.21-2.92,21.17-0.85
								c-0.43-1.19-0.71-2.45-0.76-3.74c-0.11-2.98,1.04-5.73,3.34-7.94c8.49-8.18,24.46-2.86,25.14-2.62
								c0.12,0.04,0.24,0.09,0.36,0.15l64.84,31.07l-9.48-22.6c-3.88-9.24,0.15-19.92,9.16-24.31c8.76-4.27,19.23-1.25,24.35,7.02
								c0.95,1.54,0.48,3.55-1.06,4.51c-1.54,0.95-3.56,0.48-4.51-1.06c-3.35-5.4-10.19-7.37-15.92-4.58
								c-5.89,2.87-8.52,9.85-5.98,15.89l12.81,30.54c0.52,1.25,0.22,2.7-0.76,3.64c-0.98,0.94-2.45,1.17-3.67,0.58l-72.42-34.7
								c-3.71-1.21-13.72-3.22-18.3,1.2c-1.25,1.2-1.36,2.27-1.34,2.98c0.12,3.34,4.11,7.41,5.5,8.58c1.27,1.07,1.55,2.92,0.64,4.31
								c-0.91,1.39-2.71,1.88-4.2,1.14c-7.04-3.51-20.04-7.7-24.92-3.98c-1.1,0.84-1.25,1.54-1.25,2.12
								c-0.01,3.06,4.55,7.95,7.79,10.44c1.39,1.07,1.69,3.05,0.67,4.49c-1.02,1.43-2.98,1.81-4.46,0.85
								c-4.89-3.18-16.61-8.71-19.57-4.43c-3.89,5.63,5.38,12.91,5.47,12.98c1.24,0.94,1.65,2.64,0.96,4.04
								c-0.68,1.4-2.27,2.13-3.78,1.73c-2.77-0.73-11.5-2.11-15.16,0.96c-0.52,0.43-2.09,1.76-1.76,5.77
								c0.55,6.67,27.64,34.67,59.09,52.72c1.57,0.9,2.11,2.9,1.21,4.47C296.9,994,295.8,994.59,294.66,994.59z"/></g><g><path d="M331.44,920.59c-0.52,0-1.04-0.12-1.53-0.38l-36.78-19.46c-1.6-0.85-2.21-2.83-1.36-4.43
								c0.85-1.6,2.83-2.21,4.43-1.36l36.78,19.46c1.6,0.85,2.21,2.83,1.36,4.43C333.75,919.96,332.62,920.59,331.44,920.59z"/></g><g><path d="M307.34,937.49c-0.61,0-1.22-0.17-1.77-0.52l-34.52-22.26c-1.52-0.98-1.96-3.01-0.98-4.53c0.98-1.52,3-1.96,4.53-0.98
							l34.52,22.26c1.52,0.98,1.96,3.01,0.98,4.53C309.47,936.96,308.42,937.49,307.34,937.49z"/></g><g><path d="M292.29,950.21c-0.54,0-1.1-0.14-1.61-0.42l-37.34-21.07c-1.57-0.89-2.13-2.89-1.24-4.46
							c0.89-1.57,2.88-2.13,4.46-1.24l37.34,21.07c1.57,0.89,2.13,2.88,1.24,4.46C294.54,949.61,293.43,950.21,292.29,950.21z"/></g><g opacity=".3"><path fill="#fff" d="M1313.97,654.91c-6.25,6.35-10.91,14.78-10.85,23.69c0.06,8.91,5.74,18.05,14.36,20.31
					c7.93,2.08,16.12-1.7,23.27-5.69c8.43-4.7,16.89-10.13,22.06-18.29c5.16-8.16,6.1-19.73-0.23-27.01
					C1348.48,631.71,1325.84,642.85,1313.97,654.91z"/></g><g><path fill="#bc6e4f" d="M1997.42,2093.61c-41.91,27.82-83.42,52.33-118.44,23.09l12.21-159.2l110.94-4.51L1997.42,2093.61z"/><polygon points="1884.79 2040.9 1998.21 2065.07 1999.26 2032.93"/><path fill="#ffd400" d="M1878.99,2114.28c0,0-8.47,19.87-25.02,25.76c-16.54,5.89-62.32,13.83-68.74,28.83
											c-6.42,15-4.52,50.11-4.52,50.11h223.61l0.07-129.76c0,0-8.2-7.44-31.8,3.32
											C1949.01,2103.29,1918.74,2121.99,1878.99,2114.28z"/><path fill="#060606" d="M1780.55,2200.4c-0.27,10.21,0.17,18.57,0.17,18.57h223.61l0.01-18.46L1780.55,2200.4z"/><path d="M1905.45,2134.15c-10.5,0-22.06-1.17-34.79-3.93c-2.02-0.44-3.3-2.43-2.86-4.45c0.44-2.02,2.43-3.3,4.45-2.86
											c49.72,10.79,80.52-4.01,99.35-16.08c18.69-11.98,33.71-5.4,34.34-5.11c1.88,0.85,2.71,3.07,1.86,4.95
											c-0.85,1.87-3.04,2.72-4.94,1.87c-0.56-0.24-12.17-5.06-27.23,4.59C1960.53,2122.8,1938.18,2134.15,1905.45,2134.15z"/><path d="M1877.05,2152.51c-1.06,0-2.11-0.45-2.85-1.31l-12.66-14.85c-1.34-1.57-1.15-3.93,0.42-5.27
											c1.56-1.34,3.94-1.15,5.27,0.42l12.66,14.85c1.34,1.57,1.15,3.93-0.42,5.27
											C1878.78,2152.21,1877.91,2152.51,1877.05,2152.51z"/><path d="M1866.02,2158.78c-1.06,0-2.11-0.45-2.85-1.31l-12.66-14.85c-1.34-1.57-1.15-3.93,0.42-5.27
											c1.56-1.34,3.94-1.15,5.27,0.42l12.66,14.85c1.34,1.57,1.15,3.93-0.42,5.27
											C1867.75,2158.49,1866.88,2158.78,1866.02,2158.78z"/><path d="M1854.99,2165.06c-1.06,0-2.11-0.45-2.85-1.31l-12.65-14.85c-1.34-1.57-1.15-3.93,0.42-5.27
											c1.57-1.34,3.94-1.15,5.27,0.42l12.65,14.85c1.34,1.57,1.15,3.93-0.42,5.27
											C1856.71,2164.76,1855.85,2165.06,1854.99,2165.06z"/><path d="M1950.75,2204.22c-0.38,0-0.76-0.06-1.14-0.18c-1.97-0.63-3.05-2.73-2.42-4.7c13.71-42.93,56.36-43.35,57.2-43.35
											c0,0,0,0,0.01,0c2.07,0.01,3.73,1.7,3.72,3.77c-0.01,2.06-1.69,3.72-3.74,3.72c-0.01,0-0.03,0-0.04,0
											c-1.88,0-37.99,0.52-50.01,38.14C1953.8,2203.21,1952.33,2204.22,1950.75,2204.22z"/><path fill="#bc6e4f" d="M2234.11,2092.53c-37.88,26.95-79.57,53.05-117.19,24.37l-13.85-157.21l119.63-4.32L2234.11,2092.53z
										"/><polygon points="2110.52 2044.29 2231.63 2062.7 2229 2033.33"/><path fill="#ffd400" d="M2110.61,2114.28c0,0-8.47,19.87-25.02,25.76s-62.32,13.83-68.74,28.83s-4.52,50.11-4.52,50.11
											h223.61l0.07-129.76c0,0-8.2-7.44-31.8,3.32C2180.62,2103.29,2150.35,2121.99,2110.61,2114.28z"/><path fill="#060606" d="M2012.16,2200.4c-0.27,10.21,0.17,18.57,0.17,18.57h223.61l0.01-18.46L2012.16,2200.4z"/><path d="M2137.07,2134.15c-10.5,0-22.06-1.17-34.79-3.93c-2.02-0.44-3.3-2.43-2.86-4.45c0.44-2.02,2.44-3.3,4.45-2.86
											c49.72,10.79,80.52-4.01,99.35-16.08c18.69-11.98,33.71-5.4,34.34-5.11c1.88,0.85,2.72,3.07,1.86,4.95
											c-0.85,1.87-3.04,2.71-4.94,1.87c-0.56-0.24-12.18-5.06-27.23,4.59C2192.15,2122.8,2169.79,2134.15,2137.07,2134.15z"/><path d="M2108.67,2152.51c-1.06,0-2.11-0.45-2.85-1.31l-12.66-14.85c-1.34-1.57-1.15-3.93,0.42-5.27
											c1.56-1.34,3.94-1.15,5.27,0.42l12.66,14.85c1.34,1.57,1.15,3.93-0.42,5.27
											C2110.39,2152.21,2109.52,2152.51,2108.67,2152.51z"/><path d="M2097.63,2158.78c-1.06,0-2.11-0.45-2.85-1.31l-12.65-14.85c-1.34-1.57-1.15-3.93,0.42-5.27
											c1.57-1.34,3.94-1.15,5.27,0.42l12.65,14.85c1.34,1.57,1.15,3.93-0.42,5.27
											C2099.36,2158.49,2098.49,2158.78,2097.63,2158.78z"/><path d="M2086.61,2165.06c-1.06,0-2.11-0.45-2.85-1.31l-12.66-14.85c-1.34-1.57-1.15-3.93,0.42-5.27
											c1.56-1.34,3.94-1.15,5.27,0.42l12.66,14.85c1.34,1.57,1.15,3.93-0.42,5.27
											C2088.33,2164.76,2087.47,2165.06,2086.61,2165.06z"/><path d="M2182.36,2204.22c-0.38,0-0.76-0.06-1.14-0.18c-1.97-0.63-3.06-2.73-2.43-4.7c13.71-42.93,56.35-43.35,57.2-43.35
											c0,0,0,0,0.01,0c2.07,0.01,3.73,1.7,3.72,3.77c-0.01,2.06-1.69,3.72-3.74,3.72c-0.01,0-0.03,0-0.04,0
											c-1.88,0-37.99,0.52-50.01,38.14C2185.42,2203.21,2183.95,2204.22,2182.36,2204.22z"/><polygon fill="#4a4ddc" points="1839.7 2044.29 1873.17 1405.46 2022.07 1388.95 2028.79 2044.29"/><polygon fill="#4a4ddc" points="2060.61 2044.29 1973.26 1359.67 2151.67 1342.5 2260.58 2044.29"/><path fill="#bc6e4f" d="M1936.55,1100.34l-45.6,176.65c-6.52,25.25-19.59,48.32-37.91,66.88l-153.24,135.9l-107.09-59.07
									l157.26-183.98l58.21-148.52L1936.55,1100.34z"/><polygon fill="#b05645" points="1796.51 1118 1909.56 1206.57 1920.56 1162.28"/><path fill="#ffd400" d="M1951.46,994.36l-34.02,174.31l-139.65-58.52l40.13-72.68c14.73-26.61,42.71-43.12,73.11-43.12H1951.46
									z"/><path fill="#ffd400" d="M1865.68,1405.46h305.29l-19.67-335.18c-2.55-43.51-38.78-77.37-82.36-76.99l-135.6,1.2
									c-29.55,1.21-53.05,25.24-53.58,54.79L1865.68,1405.46z"/><path fill="#bc6e4f" d="M2205.2,1095.8l56.4,118.15c7.52,15.76,9.67,33.54,6.12,50.64v0c-6.76,32.55-32.98,57.51-65.83,62.66
									l-247.96,23.34l-14.72-117.75l191.6-19.5l-30.57-65.85L2205.2,1095.8z"/><polygon fill="#b05645" points="2105.25 1158.29 2221.28 1129.48 2210.77 1107.46"/><path fill="#ffd400" d="M2068.94,993.29h58.16c22.31,0,42.79,12.32,53.25,32.02l40.93,77.08l-121.32,58.44l-39.43-77.56
									c-3.09-8.01-4.6-16.53-4.44-25.11L2068.94,993.29z"/><path fill="#fff" d="M2099.96,1164.11c-1.19,0-2.35-0.66-2.92-1.79l-32.63-64.18c-0.82-1.61-0.18-3.58,1.44-4.4
									c1.61-0.82,3.58-0.17,4.4,1.44l32.63,64.18c0.82,1.61,0.18,3.58-1.44,4.4C2100.97,1164,2100.46,1164.11,2099.96,1164.11z"/><path fill="#fff" d="M2025.38,1770.01c-1.65,0-3.07-1.25-3.25-2.93l-29.27-272.84c-0.19-1.8,1.11-3.41,2.9-3.6
									c1.81-0.18,3.41,1.11,3.61,2.91l29.27,272.84c0.19,1.8-1.11,3.41-2.9,3.6C2025.61,1770,2025.49,1770.01,2025.38,1770.01z"/><path fill="#fff" d="M2141.78,1512.1c-0.66,0-1.32-0.2-1.9-0.61c-29.62-21.12-30.42-52.34-18.64-72.42
									c0.91-1.56,2.91-2.08,4.48-1.17c1.56,0.92,2.08,2.92,1.17,4.48c-10.33,17.58-9.47,45.04,16.79,63.77
									c1.47,1.05,1.82,3.09,0.77,4.57C2143.81,1511.63,2142.8,1512.1,2141.78,1512.1z"/><path fill="#fff" d="M2149.77,1959.35c-1.56,0-2.95-1.12-3.22-2.72l-71.32-412.58c-0.31-1.78,0.89-3.47,2.67-3.78
									c1.79-0.3,3.48,0.89,3.79,2.67l71.32,412.58c0.31,1.78-0.89,3.47-2.67,3.78
									C2150.14,1959.33,2149.95,1959.35,2149.77,1959.35z"/><path fill="#fff" d="M2209.67,1985.65h-112.36c-1.81,0-3.27-1.47-3.27-3.27c0-1.81,1.47-3.27,3.27-3.27h112.36
									c1.81,0,3.27,1.47,3.27,3.27C2212.95,1984.18,2211.48,1985.65,2209.67,1985.65z"/><path fill="#fff" d="M1893.12,1491.13c-1.36,0-2.63-0.86-3.1-2.22c-0.58-1.71,0.33-3.57,2.04-4.15
									c6.22-2.12,11.1-8.8,12.43-17.03c1.29-7.97-0.38-16.27-2-24.28c-0.36-1.77,0.79-3.5,2.56-3.86c1.74-0.36,3.5,0.79,3.85,2.56
									c1.66,8.19,3.53,17.48,2.04,26.63c-1.71,10.58-8.3,19.28-16.78,22.17C1893.82,1491.08,1893.47,1491.13,1893.12,1491.13z"/><path fill="#fff" d="M1938.55,1959.35c-1.79,0-3.25-1.44-3.27-3.24l-4.3-364.5c-0.02-1.81,1.43-3.29,3.23-3.31
									c0.01,0,0.03,0,0.04,0c1.79,0,3.25,1.44,3.27,3.24l4.3,364.5c0.02,1.81-1.43,3.29-3.23,3.31
									C1938.57,1959.35,1938.56,1959.35,1938.55,1959.35z"/><path fill="#fff" d="M1981.23,1990.98h-102.01c-1.81,0-3.27-1.47-3.27-3.27c0-1.81,1.47-3.27,3.27-3.27h102.01
									c1.81,0,3.27,1.47,3.27,3.27C1984.51,1989.51,1983.04,1990.98,1981.23,1990.98z"/><path fill="#fff" d="M2125.8,1129.68c-1.14,0-2.24-0.59-2.85-1.65c-0.9-1.57-0.35-3.57,1.22-4.47l60.57-34.67
								c1.56-0.9,3.57-0.35,4.47,1.22c0.9,1.57,0.35,3.57-1.22,4.47l-60.57,34.67C2126.91,1129.54,2126.36,1129.68,2125.8,1129.68z"/><path fill="#bc6e4f" d="M1850.75,1233.07c0.59,0.91,1.28,1.81,2.12,2.59l28.12,20.35l71.45-19.29l-79.16-23.41
							c-6.31-5.46-15.89-4.78-21.35,1.56C1847.44,1220.09,1847.1,1227.52,1850.75,1233.07z"/><path fill="#060606" d="M1881,1259.29c-0.66,0-1.33-0.2-1.91-0.62l-28.14-20.36c-0.12-0.08-0.23-0.18-0.33-0.27
							c-0.93-0.88-1.81-1.94-2.6-3.15c-4.5-6.85-3.91-15.95,1.44-22.15c3.18-3.67,8.14-6,13.62-6.4c5.5-0.41,10.73,1.19,14.4,4.36
							c1.37,1.18,1.51,3.25,0.33,4.62c-1.19,1.37-3.25,1.51-4.62,0.33c-2.35-2.04-5.86-3.06-9.63-2.78
							c-3.77,0.27-7.1,1.79-9.15,4.15c-3.44,3.99-3.82,9.86-0.92,14.27c0.47,0.72,0.97,1.34,1.49,1.85l27.95,20.22
							c1.47,1.06,1.79,3.11,0.73,4.57C1883.02,1258.81,1882.02,1259.29,1881,1259.29z"/><path fill="#bc6e4f" d="M1819.04,1331.36c0.34,2.31,1.19,4.46,2.37,6.34c3.09,4.68,8.61,7.49,14.54,6.8
														c0.87-0.09,1.37-0.16,1.37-0.16c-18.51,5.93-5.24,28.31,5.71,25.16l110.9-18.92l-1.5-113.86l-71.45,19.29l-46.1,5.21
														c-10.14,1.16-17.6,9.99-17.07,20.16c1.06,4.27,4.56,7.37,8.71,8.08c-5.81,1.81-9.77,7.4-9.3,13.77
														c0.22,2.31,0.97,4.4,2.12,6.18c2.03,3.06,5.24,5.18,8.83,5.81C1821.97,1317.88,1818.07,1324.4,1819.04,1331.36z"/><path fill="#060606" d="M1834.88,1264.5c-1.64,0-3.06-1.23-3.25-2.91c-0.2-1.8,1.09-3.42,2.88-3.62l46.12-5.21
														c1.85-0.21,3.42,1.09,3.62,2.89c0.2,1.8-1.09,3.42-2.88,3.62l-46.12,5.21C1835.12,1264.49,1835,1264.5,1834.88,1264.5z
														"/><path fill="#060606" d="M1840.75,1373.14c-6.63,0-13.11-6.27-15.19-13.08c-1.26-4.14-1.04-9.26,2.21-13.33
														c-3.65-1.35-6.85-3.84-9.09-7.25c-1.51-2.29-2.5-4.94-2.88-7.67c-0.84-5.99,1.33-11.87,5.51-15.9
														c-1.85-1.23-3.45-2.82-4.68-4.7c-1.49-2.26-2.4-4.92-2.65-7.69c-0.41-5.39,1.71-10.41,5.5-13.76
														c-2.35-1.9-4.08-4.54-4.83-7.59c-0.05-0.2-0.08-0.41-0.09-0.62c-0.64-11.89,8.13-22.25,19.97-23.58
														c1.82-0.21,3.42,1.09,3.62,2.88c0.2,1.8-1.09,3.42-2.88,3.62c-8.29,0.94-14.46,8.11-14.18,16.4
														c0.81,2.78,3.14,4.88,6.01,5.37c1.49,0.26,2.61,1.5,2.71,3.01c0.1,1.51-0.85,2.89-2.3,3.34
														c-4.48,1.39-7.35,5.66-6.99,10.38c0.15,1.65,0.7,3.27,1.6,4.63c1.52,2.31,3.94,3.91,6.65,4.38
														c1.43,0.25,2.53,1.41,2.69,2.85c0.17,1.44-0.63,2.82-1.97,3.39c-4.98,2.12-7.93,7.34-7.19,12.69
														c0.25,1.77,0.9,3.49,1.87,4.97c2.52,3.83,6.89,5.89,11.44,5.37l1.35-0.16c1.65-0.2,3.23,0.9,3.58,2.55
														c0.36,1.65-0.59,3.3-2.2,3.81c-7.73,2.48-7.39,7.76-6.5,10.69c1.61,5.29,6.62,9.28,10.31,8.21l50.44-8.63
														c1.78-0.3,3.48,0.89,3.78,2.68c0.31,1.78-0.89,3.47-2.67,3.78l-50.09,8.55
														C1842.66,1373.01,1841.7,1373.14,1840.75,1373.14z"/><path fill="#060606" d="M1837.33,1347.62c-1.46,0-2.79-0.98-3.17-2.46c-0.45-1.75,0.61-3.54,2.36-3.98l29.4-7.53
														c1.72-0.45,3.53,0.61,3.98,2.36c0.45,1.75-0.61,3.54-2.36,3.98l-29.4,7.53
														C1837.87,1347.58,1837.6,1347.62,1837.33,1347.62z"/><path fill="#060606" d="M1828.18,1318.49c-1.6,0-3-1.17-3.24-2.8c-0.26-1.79,0.98-3.45,2.77-3.71l31.46-4.61
														c1.78-0.27,3.45,0.98,3.72,2.77c0.26,1.79-0.98,3.45-2.77,3.71l-31.46,4.61
														C1828.5,1318.48,1828.34,1318.49,1828.18,1318.49z"/><path fill="#060606" d="M1827.42,1292.61c-1.67,0-3.1-1.27-3.26-2.97c-0.17-1.8,1.15-3.4,2.95-3.57l25.39-2.38
														c1.86-0.17,3.4,1.15,3.57,2.95c0.17,1.8-1.15,3.4-2.95,3.57l-25.39,2.38
														C1827.62,1292.61,1827.52,1292.61,1827.42,1292.61z"/><g><path fill="#bc6e4f" d="M2005.29,1056.72c-40.41,5.2-50.48-36.37-29.43-60.38l-0.6-16.36l-1.1-30.16l-0.25-7.31l69.55-43.11
									l8.86,89.7C2052.32,989.1,2059.5,1049.75,2005.29,1056.72z"/><path fill="#060606" d="M2010.84,942.51c-4.95,17.55-24.49,31.04-35.58,37.47l-1.1-30.16L2010.84,942.51z"/><circle cx="1961.11" cy="878.72" r="85.51" fill="#bc6e4f"/><path fill="#060606" d="M1924.57,910.64c-0.02,0-0.05,0-0.07,0c-2.45-0.05-5.23-0.11-7.95-1.3c-3.38-1.47-5.77-4.45-6.38-7.96
									c-0.95-5.46,2.28-10.14,5.56-14.01l13.78-16.23c1.17-1.38,3.23-1.55,4.61-0.38c1.38,1.17,1.55,3.23,0.38,4.61l-13.78,16.24
									c-2.3,2.71-4.58,5.85-4.1,8.65c0.27,1.57,1.49,2.62,2.54,3.08c1.53,0.67,3.45,0.71,5.47,0.75c1.81,0.04,3.24,1.53,3.2,3.34
									C1927.8,909.22,1926.34,910.64,1924.57,910.64z"/><path fill="#060606" d="M1936.95,931.83c-1.79,0-3.25-1.44-3.27-3.23c-0.02-1.81,1.43-3.29,3.23-3.32
									c9.9-0.13,19.8-5.55,25.25-13.81c0.99-1.51,3.02-1.93,4.53-0.94c1.51,0.99,1.93,3.02,0.93,4.53
									c-6.7,10.18-18.43,16.6-30.62,16.76C1936.98,931.83,1936.96,931.83,1936.95,931.83z"/><path fill="#060606" d="M1958.49,875.41c-1.56,4.25-5.22,6.84-8.18,5.78c-2.96-1.09-4.13-5.42-2.6-9.66
								c1.56-4.29,5.22-6.87,8.18-5.78C1958.84,866.81,1960.01,871.13,1958.49,875.41z"/><path fill="#060606" d="M1913.67,858.59c-1.56,4.25-5.22,6.84-8.18,5.78c-2.96-1.09-4.13-5.42-2.6-9.66
								c1.56-4.29,5.22-6.87,8.18-5.78C1914.02,849.98,1915.19,854.31,1913.67,858.59z"/><path fill="#060606" d="M1878.23,795.9c1.95,9.14,6.38,17.82,13.01,24.38c7.11,7.04,16.84,11.53,26.85,11.81
								c9.98,0.28,20.14-3.8,26.76-11.32c2.41,11.21,11.43,20.76,22.48,23.78c11.05,3.02,26.14,0.82,33.9-7.63
								c-9.12,9.79-4.38,20.34,0.41,31.03c1.76,3.92,13.55,21.14,23.68,18.15c13.71-4.05-3.55-1.05,16.05-12.83
								c15.44-9.28-7.8,45.41,4.06,53.83c55.61,11.52,72.71-71.38,42.22-76.08c0,0,24.84-27.58,8.95-66.89
								c-9.38-23.16-32.04-30.04-49.05-31.77c-6.72-12.44-17.81-22.6-31.04-27.69c-14.46-5.58-30.39-5.3-45.87-4.96
								c-6.99,0.16-13.95,0.32-20.94,0.47c-5,0.12-10.02,0.24-14.97,0.89c-18.33,2.48-35.5,12.87-46.15,28.03
								C1879.11,762.54,1874.8,779.82,1878.23,795.9z"/><circle cx="2041.75" cy="877.26" r="23.47" fill="#bc6e4f"/><path fill="#fff" d="M2080.6,826.55c-1.04,0-2.06-0.49-2.7-1.41c-1.03-1.49-0.66-3.53,0.83-4.56
							c4.96-3.43,5.78-10.64,4.45-15.88c-1.63-6.41-5.89-11.98-10.02-17.37c-1.1-1.44-0.82-3.49,0.61-4.59
							c1.44-1.1,3.49-0.82,4.59,0.61c4.32,5.64,9.2,12.03,11.16,19.74c1.93,7.61,0.5,17.63-7.07,22.87
							C2081.89,826.36,2081.24,826.55,2080.6,826.55z"/><path fill="#fff" d="M1924.55,816.34c-0.18,0-0.35-0.01-0.53-0.04c-9.56-1.55-18.35-6.41-24.75-13.69
							c-6.4-7.27-10.1-16.61-10.42-26.29c-0.06-1.81,1.36-3.32,3.16-3.38c0.04,0,0.08,0,0.11,0c1.76,0,3.21,1.4,3.27,3.17
							c0.26,8.05,3.47,16.14,8.79,22.18c5.32,6.05,12.93,10.26,20.88,11.55c1.78,0.29,3,1.97,2.7,3.76
							C1927.52,815.2,1926.13,816.34,1924.55,816.34z"/><path fill="#fff" d="M1987.93,836.99c-12.76,0-25.38-5.45-34-14.96c-1.21-1.34-1.11-3.41,0.23-4.62
							c1.34-1.21,3.41-1.12,4.63,0.22c8.44,9.3,21.95,14.18,34.37,12.45c1.81-0.25,3.45,1,3.69,2.79c0.25,1.79-1,3.45-2.79,3.7
							C1992.02,836.85,1989.98,836.99,1987.93,836.99z"/><path fill="#fff" d="M2023.22,764.18c-0.19,0-0.39-0.02-0.58-0.05c-1.78-0.32-2.96-2.02-2.64-3.8
							c0.74-4.1-1.61-8.75-5.36-10.58c-1.63-0.79-2.3-2.75-1.51-4.38c0.79-1.62,2.76-2.3,4.38-1.5c6.45,3.15,10.21,10.57,8.93,17.63
							C2026.15,763.07,2024.77,764.18,2023.22,764.18z"/></g></g><g><path fill="#bc6e4f" d="M1699.81,1479.76l-16.5,19.04c-0.37,0.37-70.57,90.1-87.26,92.42c-21.96,3.14-18.04-16.43-17.44-17.96
						c-1.12,0.97-19.76,16.95-29.45,5.09c-6.92-8.49,5.35-19.27,9.65-22.64c-4.98,3.33-21.22,13.4-27.39,3.71
						c-6.32-9.92,10.44-22.75,11.64-23.65c-1.53,0.71-22.94,9.95-28.96-3.03c-6.81-14.63,62.37-68.74,62.37-68.74l-36-2.88
						c-5.16-0.41-9.54-3.63-11.71-8.08c-1.01-2.17-1.53-4.57-1.35-7.19c0.49-7.22,6.32-12.87,13.51-13.25l54.78-12.61l16.54-16.61
						L1699.81,1479.76z"/><path fill="#060606" d="M1591.65,1594.84c-6.07,0-10.63-1.89-13.59-5.65c-2.17-2.75-3.03-6.04-3.27-9.02
						c-4.7,3-11.46,6.28-17.83,5.74c-4.15-0.35-7.63-2.21-10.32-5.51c-2.18-2.66-3.12-5.85-2.71-9.2c0.22-1.83,0.82-3.61,1.67-5.32
						c-3.08,0.86-6.2,1.22-9.07,0.66c-3.31-0.64-6.03-2.49-7.84-5.32c-4.11-6.42-1.12-13.36,2.97-18.73
						c-7.6,1.14-16.51,0.28-20.52-8.34c-6.56-14.07,35.76-50.59,56.78-67.55l-27.68-2.21c-6.16-0.47-11.68-4.26-14.4-9.89
						c-1.33-2.75-1.91-5.81-1.7-8.87c0.62-8.73,7.61-15.67,16.32-16.27l36.36-8.36c1.76-0.4,3.52,0.69,3.92,2.46
						c0.41,1.76-0.69,3.52-2.46,3.92l-36.63,8.42c-0.19,0.04-0.37,0.07-0.56,0.08c-5.55,0.29-10.03,4.68-10.43,10.21
						c-0.14,1.92,0.23,3.84,1.07,5.57c1.71,3.54,5.16,5.92,9.01,6.21l35.96,2.87c1.34,0.11,2.49,1.03,2.88,2.32
						c0.39,1.29-0.05,2.69-1.12,3.52c-32.28,25.27-64.93,57.23-61.4,64.81c4.72,10.14,24.51,1.46,24.7,1.37
						c1.53-0.7,3.33-0.13,4.18,1.32c0.85,1.45,0.47,3.3-0.88,4.3c-4.1,3.02-14.9,13.04-10.88,19.32c0.86,1.35,2,2.12,3.58,2.43
						c5.31,1.03,14.02-3.45,19.88-7.6c1.46-1.04,3.48-0.7,4.53,0.74c1.06,1.44,0.76,3.47-0.67,4.55
						c-4.99,3.76-10.52,9.46-11.09,14.19c-0.19,1.61,0.22,2.97,1.29,4.28c1.55,1.91,3.45,2.93,5.8,3.13
						c6.51,0.55,15.27-5.36,18.95-8.58c1.14-0.99,2.81-1.08,4.04-0.21c1.23,0.87,1.71,2.47,1.15,3.88
						c-0.29,0.93-1.37,7.23,1.67,10.84c2.2,2.61,6.37,3.51,12.31,2.67c1.81-0.25,3.45,1,3.7,2.79c0.25,1.79-0.99,3.45-2.78,3.7
						C1594.83,1594.72,1593.19,1594.84,1591.65,1594.84z"/><path fill="#060606" d="M1607.71,1492.89c-3.4,0-7.09-0.5-10.95-1.8c-16.47-5.54-23.12-25.25-23.39-26.09
							c-0.57-1.72,0.37-3.56,2.08-4.13c1.71-0.57,3.57,0.37,4.14,2.08c0.06,0.17,5.92,17.44,19.26,21.93
							c13.29,4.47,24.51-2.95,24.62-3.03c1.5-1.01,3.53-0.63,4.55,0.87c1.02,1.49,0.64,3.52-0.85,4.54
							C1626.73,1487.56,1618.79,1492.89,1607.71,1492.89z"/><path fill="#060606" d="M1543.14,1538.99c-0.94,0-1.86-0.4-2.51-1.17c-1.16-1.39-0.98-3.45,0.41-4.61l31.98-26.76
							c1.39-1.16,3.45-0.98,4.61,0.41c1.16,1.39,0.98,3.45-0.41,4.61l-31.98,26.76C1544.63,1538.74,1543.89,1538.99,1543.14,1538.99
							z"/><path fill="#060606" d="M1560.31,1557.92c-0.87,0-1.75-0.35-2.39-1.04c-1.23-1.32-1.16-3.39,0.16-4.63l30.22-28.25
							c1.32-1.24,3.39-1.17,4.63,0.16c1.23,1.32,1.16,3.39-0.16,4.63l-30.22,28.25C1561.92,1557.62,1561.11,1557.92,1560.31,1557.92
							z"/><path fill="#060606" d="M1578.66,1576.49c-0.9,0-1.8-0.37-2.45-1.1c-1.2-1.35-1.08-3.42,0.27-4.62l29.25-25.98
							c1.35-1.2,3.42-1.08,4.62,0.27c1.2,1.35,1.08,3.42-0.27,4.62l-29.25,25.98C1580.21,1576.21,1579.44,1576.49,1578.66,1576.49z"/></g><g><path fill="#ffc1a4" d="M859.04,970.4c46.1-2.62,11.27-53.5,3.21-79.49l-0.61-53.66l-76.97-12.58l-2.28,69.35
							C782.39,894.01,761.37,975.94,859.04,970.4z"/><path fill="#060606" d="M862.18,886.77c0,0-40.19-11-47.82-28.68l45.73-10.77L862.18,886.77z"/><path fill="#ffc1a4" d="M936.03,812.71c-0.67,2.1-1.5,4.15-2.38,6.2c-0.49,1.17-1.03,2.34-1.61,3.5
						c-0.94,1.98-1.99,3.92-3.1,5.82c-12.74,21.66-33.71,35.51-56.61,39.85c-19.23,3.67-39.84,0.64-58.05-10.06
						c-39.9-23.44-53.22-74.79-29.78-114.69c23.44-39.87,74.79-53.22,114.66-29.78C934.05,734.03,948.62,775.85,936.03,812.71z"/><path fill="#060606" d="M890.83,824.06c-1.77,0-3.45-0.3-5-0.57c-1.78-0.31-2.97-2.01-2.66-3.79c0.31-1.78,2.01-2.98,3.79-2.66
						c1.86,0.33,3.78,0.66,5.38,0.32c1.08-0.24,2.43-1,2.98-2.44c0.99-2.57-0.6-6.01-2.29-9.04l-10.15-18.22
						c-0.88-1.58-0.31-3.57,1.27-4.45c1.58-0.88,3.57-0.31,4.45,1.27l10.15,18.22c2.42,4.35,4.64,9.48,2.68,14.57
						c-1.26,3.28-4.14,5.7-7.69,6.48C892.75,823.98,891.78,824.06,890.83,824.06z"/><path fill="#060606" d="M870.47,841.56c-0.22,0-0.45-0.02-0.68-0.07c-11.7-2.47-21.78-10.9-26.29-21.98
						c-0.68-1.67,0.12-3.58,1.8-4.27c1.68-0.68,3.59,0.12,4.27,1.8c3.65,8.96,12.12,16.04,21.58,18.04c1.77,0.37,2.9,2.11,2.52,3.88
						C873.34,840.5,871.98,841.56,870.47,841.56z"/><path fill="#060606" d="M859.88,783.11c0.69,4.38,3.72,7.57,6.76,7.11c3.05-0.48,5-4.42,4.34-8.79c-0.68-4.42-3.7-7.6-6.76-7.11
						C861.18,774.77,859.23,778.71,859.88,783.11z"/><path fill="#060606" d="M906.15,775.47c0.69,4.38,3.72,7.57,6.76,7.11c3.05-0.48,5-4.42,4.34-8.79c-0.68-4.42-3.7-7.6-6.76-7.11
						C907.45,767.13,905.51,771.06,906.15,775.47z"/><path fill="#060606" d="M749.63,732.81c-54.08,14.32-7.32,100.9,30.33,86.51c-4.33-11.61-21.25-62.53,0.68-54.05
						c20.91,8.09,11.93,16.97,12.07,17.23c1.61,2.55,4.93,2.24,8.85,0.41c14.9-6.94,19.1-26.28,9.32-39.5l-1.2-1.62
						c0,0,118.94,24.33,131.31-35.9c10.76-52.48-31.14-67.92-65.06-40.41c3.83-11.29,9.97-38.59-18.93-42.25
						C814.31,617.87,750.76,680.31,749.63,732.81z"/><path fill="#fff" d="M865.84,732.41c-5.82,0-11.61-0.94-17.07-2.85c-1.71-0.6-2.6-2.47-2.01-4.17c0.6-1.71,2.46-2.61,4.17-2.01
						c13.01,4.56,28.31,2.77,39.91-4.67c11.61-7.44,19.63-20.58,20.92-34.31c0.17-1.8,1.76-3.13,3.57-2.95
						c1.8,0.17,3.12,1.77,2.95,3.57c-1.48,15.68-10.64,30.71-23.91,39.21C885.99,729.62,875.89,732.41,865.84,732.41z"/><path fill="#fff" d="M859.99,716.34c-2.4,0-4.79-0.29-7.11-0.88c-1.75-0.45-2.81-2.23-2.36-3.98c0.45-1.75,2.22-2.81,3.99-2.36
						c8.81,2.26,18.88-1.15,24.51-8.28c1.12-1.42,3.18-1.66,4.6-0.54c1.42,1.12,1.66,3.18,0.54,4.6
						C878.46,712.11,869.19,716.34,859.99,716.34z"/><circle cx="779.16" cy="775.8" r="23" fill="#ffc1a4"/></g><g><path fill="#fff" d="M697.08,694.75c0.51,25.94-9.8,49.52-26.75,66.42c-7.06,7.1-15.31,13.03-24.41,17.49l-3.33,23.8
					c-1.68,11.99-15.61,17.78-25.29,10.51l-33.3-25.03H515.1c-50.09,0-92.43-39.45-93.41-89.53c-0.51-25.94,9.8-49.52,26.75-66.42
					c16.54-16.54,39.38-26.77,64.63-26.77h90.6C653.76,605.22,696.1,644.67,697.08,694.75z"/><path d="M626.8,819.93c-4.16,0-8.27-1.34-11.75-3.96l-32.31-24.28H515.1c-52.56,0-96.14-41.81-97.15-93.2
					c-0.51-26.16,9.38-50.72,27.85-69.14c17.97-17.96,41.86-27.86,67.27-27.86h90.6c52.56,0,96.14,41.81,97.15,93.2l0,0
					c0.51,26.16-9.38,50.72-27.85,69.14c-6.94,6.97-14.88,12.79-23.62,17.3l-3.06,21.86c-0.97,6.96-5.42,12.72-11.91,15.42
					C631.92,819.42,629.35,819.93,626.8,819.93z M513.07,608.96c-23.42,0-45.43,9.12-61.99,25.67
					c-17.01,16.98-26.12,39.6-25.65,63.7c0.92,47.35,41.15,85.87,89.67,85.87h68.89c0.81,0,1.6,0.26,2.25,0.75l33.3,25.03
					c3.48,2.61,7.95,3.18,11.97,1.51c4.02-1.67,6.77-5.24,7.37-9.54l3.33-23.8c0.17-1.23,0.94-2.29,2.06-2.84
					c8.7-4.27,16.58-9.91,23.41-16.77c17.02-16.98,26.13-39.61,25.66-63.71l0,0c-0.92-47.35-41.15-85.87-89.67-85.87H513.07z"/><line x1="620.03" x2="494.45" y1="663" y2="663" fill="#fff"/><path d="M620.03,666.27H494.45c-1.81,0-3.27-1.47-3.27-3.27c0-1.81,1.47-3.27,3.27-3.27h125.58c1.81,0,3.27,1.47,3.27,3.27
						C623.3,664.81,621.83,666.27,620.03,666.27z"/><line x1="620.03" x2="494.45" y1="695.64" y2="695.64" fill="#fff"/><path d="M620.03,698.91H494.45c-1.81,0-3.27-1.47-3.27-3.27c0-1.81,1.47-3.27,3.27-3.27h125.58c1.81,0,3.27,1.47,3.27,3.27
						C623.3,697.45,621.83,698.91,620.03,698.91z"/><g><line x1="620.03" x2="543.82" y1="728.28" y2="728.28" fill="#fff"/><path d="M620.03,731.56h-76.21c-1.81,0-3.27-1.47-3.27-3.27c0-1.81,1.47-3.27,3.27-3.27h76.21c1.81,0,3.27,1.47,3.27,3.27
						C623.3,730.09,621.83,731.56,620.03,731.56z"/></g></g><g><path fill="#fff" d="M2029.07,552.71v75.53c0,32.89-26.66,59.55-59.55,59.55h-249.77c-32.89,0-59.55-26.66-59.55-59.55v-75.53
				c0-32.89,26.66-59.55,59.55-59.55h249.77C2002.4,493.16,2029.07,519.83,2029.07,552.71z"/><path fill="#060f11" d="M1969.51,691.07h-249.77c-34.64,0-62.82-28.18-62.82-62.82v-75.53c0-34.64,28.18-62.82,62.82-62.82h249.77
				c34.64,0,62.82,28.18,62.82,62.82v75.53C2032.34,662.89,2004.16,691.07,1969.51,691.07z M1719.74,496.44
				c-31.03,0-56.28,25.24-56.28,56.28v75.53c0,31.03,25.25,56.28,56.28,56.28h249.77c31.03,0,56.28-25.25,56.28-56.28v-75.53
				c0-31.03-25.25-56.28-56.28-56.28H1719.74z"/><path fill="#ffd400" d="M1862.74,553.32v81.42c0,9.67-7.86,17.53-17.53,17.53c-9.69,0-17.56-7.86-17.56-17.53v-81.42
				c0-9.69,7.86-17.56,17.56-17.56c4.83,0,9.21,1.96,12.39,5.14C1860.78,544.08,1862.74,548.46,1862.74,553.32z"/><path fill="#060f11" d="M1845.21,655.55c-11.49,0-20.83-9.33-20.83-20.81v-81.42c0-11.49,9.34-20.83,20.83-20.83
				c5.55,0,10.77,2.17,14.7,6.1c3.94,3.93,6.1,9.17,6.1,14.73v81.42C1866.01,646.21,1856.68,655.55,1845.21,655.55z M1845.21,539.03
				c-7.87,0-14.28,6.41-14.28,14.28v81.42c0,7.86,6.41,14.26,14.28,14.26c7.86,0,14.25-6.4,14.25-14.26v-81.42
				c0-3.82-1.48-7.41-4.18-10.1C1852.58,540.52,1849.01,539.03,1845.21,539.03z"/><path fill="#0081ff" d="M1738.39,540.9c3.18,3.18,5.14,7.56,5.14,12.42v81.42c0,9.67-7.84,17.53-17.53,17.53
				s-17.53-7.86-17.53-17.53v-81.42c0-9.69,7.84-17.56,17.53-17.56C1730.85,535.76,1735.23,537.72,1738.39,540.9z"/><path fill="#060f11" d="M1725.99,655.55c-11.47,0-20.81-9.33-20.81-20.81v-81.42c0-11.49,9.33-20.83,20.81-20.83
				c5.58,0,10.81,2.17,14.71,6.1c3.93,3.93,6.09,9.16,6.09,14.73v81.42C1746.8,646.21,1737.47,655.55,1725.99,655.55z
				 M1725.99,539.03c-7.86,0-14.26,6.41-14.26,14.28v81.42c0,7.86,6.39,14.26,14.26,14.26c7.86,0,14.26-6.4,14.26-14.26v-81.42
				c0-3.82-1.48-7.41-4.18-10.1c0,0-0.01-0.01-0.01-0.01C1733.39,540.51,1729.82,539.03,1725.99,539.03z"/><path fill="#ff452d" d="M1798,578.05c3.18,3.18,5.14,7.56,5.14,12.39v44.3c0,9.67-7.86,17.53-17.56,17.53
				c-9.67,0-17.53-7.86-17.53-17.53v-44.3c0-9.67,7.86-17.53,17.53-17.53C1790.45,572.91,1794.82,574.87,1798,578.05z"/><path fill="#060f11" d="M1785.59,655.55c-11.47,0-20.81-9.33-20.81-20.81v-44.3c0-11.47,9.33-20.81,20.81-20.81
				c5.57,0,10.8,2.17,14.73,6.1c3.93,3.93,6.1,9.16,6.1,14.71v44.3C1806.42,646.21,1797.08,655.55,1785.59,655.55z M1785.59,576.18
				c-7.86,0-14.26,6.4-14.26,14.26v44.3c0,7.86,6.39,14.26,14.26,14.26c7.87,0,14.28-6.4,14.28-14.26v-44.3
				c0-3.8-1.48-7.38-4.18-10.08c0,0,0,0,0,0C1792.99,577.67,1789.41,576.18,1785.59,576.18z"/><path fill="#060f11" d="M1979.11,564.34h-78.22c-1.55,0-2.81-1.26-2.81-2.81s1.26-2.81,2.81-2.81h78.22c1.55,0,2.81,1.26,2.81,2.81
				S1980.66,564.34,1979.11,564.34z"/><path fill="#060f11" d="M1979.11,596.82h-78.22c-1.55,0-2.81-1.26-2.81-2.81c0-1.55,1.26-2.81,2.81-2.81h78.22
				c1.55,0,2.81,1.26,2.81,2.81C1981.92,595.57,1980.66,596.82,1979.11,596.82z"/><path fill="#060f11" d="M1924.35,629.31h-23.46c-1.55,0-2.81-1.26-2.81-2.81c0-1.55,1.26-2.81,2.81-2.81h23.46
				c1.55,0,2.81,1.26,2.81,2.81C1927.16,628.05,1925.9,629.31,1924.35,629.31z"/></g></svg>