<svg xmlns="http://www.w3.org/2000/svg" enable-background="new 0 0 850 850" viewBox="0 0 850 850"><path fill="#eeebf7" d="M125.6,596.84c-43.45-64.9-90.19-167.25,7.01-211.86c0.89-0.41,1.81-0.79,2.71-1.17
				c4.59-1.98,29.08-15.7,13.07-77.63c-0.38-1.45-1.04-3.81-1.47-5.25c-2.91-9.56-19-71.91,39.27-117.51
				c27.8-21.75,62.29-30.86,96.4-26.79c27.77,3.31,65.55,12.89,105.81,37.94c0,0,29.86,26.31,56.4-1.2c0,0,32.78-68.86,92.31-20.19
				c8.12,6.64,14.85,15.02,20.25,24.36c9.71,16.79,38.15,47.79,104.19,6.59c0,0,118.33-58.59,99.53,123.16
				c0,0-26.49,112.54,8.04,177.68c8.66,16.33,14.45,34.25,16.24,52.97c3.6,37.75-0.48,90.37-50.39,93.6
				c-20.99,1.36-41.68,6.22-60.88,15.48c-121.51,58.64-301.1,62.33-437.97,15.7C191.72,667.59,152.91,637.64,125.6,596.84z"/><path fill="#2b468a" d="M710.87,440.21c10.2,1.46,16.84,19.23,16.84,19.23c25.81,10.02,8.25,35.6,8.25,35.6
					c29.82,17.09,8.72,39.84,8.72,39.84c23.22,25.34-10.37,41.96-10.37,41.96c24.52,8.02-8.72,37.48-8.72,37.48l-12.49,3.54
					l-10.07-1.36C715.39,578.59,718.73,473.01,710.87,440.21z"/><path fill="#81c4eb" d="M664.77,559.87c-11.9-29.82,7.43-39.48,7.43-39.48c-7.19-26.05,6.48-28.64,6.48-28.64
					c-11.9-20.16,12.17-32.52,12.17-32.52c7.43-15.51,14.29-19.83,20.02-19.01c7.85,32.8,4.51,138.37-7.85,176.28l-16.1-2.18
					C651.92,598.88,664.77,559.87,664.77,559.87z"/><circle cx="724.41" cy="521.56" r="4.8" fill="#bd97f8"/><ellipse cx="722" cy="563.1" fill="#bd97f8" rx="8" ry="5.33" transform="rotate(-24.066 721.946 563.072)"/><ellipse cx="721.14" cy="546.7" fill="#bd97f8" rx="5.31" ry="3.54" transform="rotate(-24.066 721.081 546.667)"/><rect width="24.55" height="74.71" x="708.64" y="608.58" fill="#e13268" transform="rotate(-180 720.916 645.938)"/><rect width="34.15" height="74.71" x="675.56" y="608.58" fill="#ff5b7e" transform="rotate(-180 692.633 645.938)"/><path fill="#e5959d" d="M361.74,335.02c0,0-8.62,13.73-6.07,24.26c0,0-18.51,1.92-26.81-2.87c0,0,5.75-17.56,3.51-25.54
						L361.74,335.02z"/><path fill="#f9aeac" d="M350.25,311.71c7.81,3.42,13.19-15,15.3-23.86c0.12,0.18,10.21,7.03,8.28,20.73
						c-0.09,0.66-0.05,1.34,0.14,1.98c0.46,1.63,1.78,4.76,5.5,8.95c0.13,0.14,0.21,0.32,0.23,0.51c0.07,0.67-0.18,2.2-3.59,3.18
						c0,0-0.64,2.23,0.32,3.51l-2.23,1.6l0.96,2.87l-1.83,1.04c-0.23,0.13-0.33,0.4-0.25,0.64c0.6,1.79,1.97,8.68-14.2,5.33
						c0,0-19.26-2.96-26.09-5.46C341.17,324.92,335.18,304.92,350.25,311.71z"/><path fill="#100259" d="M316.93,294.2c1.24-1.32,3.47-2.43,7.46-1.64c9.41-17.56,34.38-14.94,41.15-4.7
						c-2.1,8.86-7.49,27.27-15.3,23.86c-15.07-6.8-9.08,13.21-17.47,21.03c-0.26-0.09-0.5-0.19-0.72-0.28
						c-6,0.05-7.34-7.66-8.94-12.13c-17.84,7.31-22.55-20.47-11.19-23.22C313.84,296.65,315.59,295.63,316.93,294.2z"/><rect width="163" height="5" x="186.3" y="607.47" fill="#b7dfff" transform="rotate(-81.466 267.806 609.98)"/><rect width="5" height="163" x="372.77" y="528.47" fill="#b7dfff" transform="rotate(-8.529 375.383 610.126)"/><path fill="#915293" d="M237.58,398.39c21.49,111.5-1.65,156.03,99.41,146.42l14.78-8.06l-28.21-20.15l-53.73-40.3l-1.34-47.02
						l-20.15-17.46L237.58,398.39z"/><path fill="#bd97f8" d="M334.3,532.73c-57.29,2.35-77.91-57.76-104.11-153.81c18.13-36.94,56.97-16.27,68.51,48.36l18.13,47.69
						l24.18,28.21L334.3,532.73z"/><polygon fill="#ffc1bb" points="338.95 590.01 318.18 625.41 331.61 636.16 362.51 605.26"/><polygon fill="#ffc1bb" points="406.84 606.61 406.84 642.88 422.96 642.88 432.36 605.26"/><path fill="#060351" d="M407.32,638.38c3.83,2.31,9.92,4.52,17.55,2.36c1.97-0.56,3.85,1.01,3.65,3.04
						c-0.73,7.21,1.38,21.4,23.36,36.29c0.38,0.26,0.52,0.78,0.27,1.16c-1.28,2.02-6.64,6.99-26.5-0.74l-14.78-17.46l-5.37,22.84
						h-5.37l2.36-44.89C402.61,638.57,405.25,637.13,407.32,638.38z"/><path fill="#060351" d="M319.52,618.7l15.55,16.3l-12.87,14.6l2.6,36.36c0.04,0.49-0.52,0.8-0.92,0.5l-8.51-6.39
						c-4.2-3.15-6.85-7.94-7.28-13.17l-2-24.02l-14.78,12.09l-4.03-4.03C287.28,650.94,310.12,620.04,319.52,618.7z"/><path fill="#ffc1bb" d="M225.49,367.5c0,0,0-42.99-10.75-16.12c0,0-14.78,1.34-26.87-14.78c0,0-14.78,17.46,25.52,38.96
						L225.49,367.5z"/><path fill="#bababa" d="M371.91,450.78c9.4,24.18,83.29,29.55,87.32,59.11l-20.15,104.78h-34.93l9.4-81.94h-41.64l-14.78-47.02
						l-10.75-37.61L371.91,450.78z"/><path fill="#362a37" d="M359.82,462.87l42.99,75.23c6.96,30.96-19.5,51.98-42.99,73.88l-25.52-17.46l25.52-38.96
						c0,0-69.85-29.55-57.76-60.45l15.18-29.21l15.72-5.72L359.82,462.87z"/><path fill="#dceff8" d="M329.65,354.21c0,0,14.41,8.41,31.03,0.78l7.21,81.02v30.9c0,0-24.18,21.49-51.05,5.37l2.69-40.3
						l5.37-44.33L329.65,354.21z"/><path fill="#e13268" d="M354.45,354.06c44.33,6.72,37.61,38.96,56.42,61.79l41.64-16.12l2.69,34.93l-67.17,4.03l-14.78-13.43
						c0,0,2.69,34.93,8.06,41.64l-16.12,2.69C355.14,447.04,361.17,397.05,354.45,354.06z"/><path fill="#e13268" d="M324.9,511.23c-2.69-60.45,14.78-123.09,9.4-157.17c0,0-38.96-8.06-73.88,38.96l-34.93-30.9l-17.46,12.09
						c33.58,48.36,33.04,57.05,87.32,42.99c-9.4,30.9-8.93,66.35-17.46,92.69L324.9,511.23z"/><polygon fill="#fec227" points="432.36 436.01 511.37 436.01 531.32 374.37 452.32 374.37"/><rect width="57.76" height="5.37" x="388.03" y="430.63" fill="#fec227" transform="rotate(-180 416.913 433.32)"/><g><rect width="137.19" height="232.11" x="100.13" y="449.21" fill="#915293"/></g><g><rect width="103.45" height="232.11" x="525.76" y="449.21" fill="#915293"/></g><g><path fill="#915293" d="M629.2,449.97H66.72c-1.7,0-3.08-1.38-3.08-3.08v-9.2c0-1.7,1.38-3.08,3.08-3.08H629.2V449.97z"/></g><g><circle cx="171.35" cy="282.29" r="40" fill="#362a37"/></g><g><polygon fill="#fff" points="157.19 300.66 143.69 280.4 147.02 278.18 157.52 293.93 186.8 258.03 189.9 260.56"/></g><g><rect width="321.74" height="234.71" x="441.97" y="135.31" fill="#fff"/></g><g><rect width="321.74" height="37.36" x="441.97" y="332.67" fill="#ffc1bb"/></g><g><rect width="321.74" height="20.66" x="441.97" y="135.31" fill="#362a37"/></g><g><circle cx="474.5" cy="146.74" r="3.96" fill="#fff"/></g><g><circle cx="456.95" cy="146.74" r="3.96" fill="#fff"/></g><g><rect width="87.91" height="2" x="475.81" y="169.04" fill="gray"/></g><g><rect width="132.74" height="2" x="476.25" y="189.69" fill="gray"/></g><g><rect width="122.19" height="2" x="476.25" y="260.9" fill="gray"/></g><g><rect width="122.19" height="2" x="476.25" y="272.33" fill="gray"/></g><g><rect width="122.19" height="2" x="476.25" y="283.75" fill="gray"/></g><g><circle cx="466.14" cy="352.01" r="6.15" fill="#bababa"/></g><g><circle cx="485.48" cy="352.01" r="6.15" fill="#bababa"/></g><g><circle cx="504.82" cy="352.01" r="6.15" fill="#bababa"/></g><g><circle cx="524.16" cy="352.01" r="6.15" fill="#bababa"/></g><g><ellipse cx="677.71" cy="209.83" fill="#bd97f8" rx="23.91" ry="26.76"/></g><g><path fill="#bd97f8" d="M722.02,285.83c0-22.5-19.86-40.74-44.36-40.74c-24.5,0-44.36,18.24-44.36,40.74c0,1.25,0.07,2.48,0.19,3.7
				h88.33C721.94,288.31,722.02,287.08,722.02,285.83z"/></g></svg>